SplineFontDB: 1.0
FontName: UbuntuTitleSkinny
FullName: UbuntuTitleSkinny
FamilyName: UbuntuTitleSkinny
Weight: Skinny
Copyright: Copyright (c) 2005 Canonical Ltd.\nmade by Andrew Fitzsimon ( andrew@fitzsimon.com.au ) \nreleased under the LGPL ( http://www.gnu.org/copyleft/lesser.html )\nskinny version from Paulo Silva - june'07
Version: 002.000
ItalicAngle: 0
UnderlinePosition: -100
UnderlineWidth: 50
Ascent: 800
Descent: 200
Order2: 1
XUID: [1021 682 1097764676 8646645]
FSType: 0
OS2Version: 1
OS2_WeightWidthSlopeOnly: 0
OS2_UseTypoMetrics: 1
CreationTime: 1124425253
ModificationTime: 1182791750
PfmFamily: 17
TTFWeight: 400
TTFWidth: 5
LineGap: 88
VLineGap: 0
Panose: 2 0 5 3 0 0 0 0 0 0
OS2TypoAscent: 0
OS2TypoAOffset: 1
OS2TypoDescent: 0
OS2TypoDOffset: 1
OS2TypoLinegap: 0
OS2WinAscent: 0
OS2WinAOffset: 1
OS2WinDescent: 0
OS2WinDOffset: 1
HheadAscent: 0
HheadAOffset: 1
HheadDescent: 0
HheadDOffset: 1
OS2SubXSize: 648
OS2SubYSize: 696
OS2SubXOff: 0
OS2SubYOff: 138
OS2SupXSize: 648
OS2SupYSize: 696
OS2SupXOff: 0
OS2SupYOff: 476
OS2StrikeYSize: 48
OS2StrikeYPos: 256
OS2Vendor: 'PfEd'
ScriptLang: 1
 1 latn 1 dflt 
TableOrder: GPOS 1
	'kern'
TtfTable: cvt  4
!$MDh
EndTtf
TtfTable: maxp 32
!!*'"!+>k6!!<3$!!!!#!!!!"!!*'"!'gMaz
EndTtf
LangName: 1033 
LangName: 2057 "" "" "Ubuntu-Title" 
LangName: 3081 "" "" "Ubuntu-Title" 
Encoding: UnicodeFull
Compacted: 1
UnicodeInterp: none
NameList: Adobe Glyph List
DisplaySize: -48
AntiAlias: 1
FitToEm: 1
WinInfo: 32 16 9
BeginChars: 1114114 216
StartChar: exclam
Encoding: 33 33 4
Width: 296
GlyphClass: 2
Flags: W
Fore
149.458 667.906 m 128,-1,1
 158.833 667.906 158.833 667.906 158.833 658.531 c 2,2,-1
 158.833 200.844 l 2,3,4
 158.833 191.469 158.833 191.469 149.458 191.469 c 128,-1,5
 140.083 191.469 140.083 191.469 140.083 200.844 c 2,6,-1
 140.083 658.531 l 2,7,0
 140.083 667.906 140.083 667.906 149.458 667.906 c 128,-1,1
158.833 9.375 m 128,-1,9
 158.833 0 158.833 0 149.458 0 c 128,-1,10
 140.083 0 140.083 0 140.083 9.375 c 128,-1,11
 140.083 18.75 140.083 18.75 149.458 18.75 c 128,-1,8
 158.833 18.75 158.833 18.75 158.833 9.375 c 128,-1,9
EndSplineSet
EndChar
StartChar: quotedbl
Encoding: 34 34 5
Width: 374
GlyphClass: 2
Flags: W
Fore
264.374 620.906 m 128,-1,1
 273.749 620.906 273.749 620.906 273.749 611.531 c 2,2,-1
 273.749 417.844 l 2,3,4
 273.749 408.469 273.749 408.469 264.374 408.469 c 128,-1,5
 254.999 408.469 254.999 408.469 254.999 417.844 c 2,6,-1
 254.999 611.531 l 2,7,0
 254.999 620.906 254.999 620.906 264.374 620.906 c 128,-1,1
57.374 620.906 m 128,-1,9
 66.749 620.906 66.749 620.906 66.749 611.531 c 2,10,-1
 66.749 417.844 l 2,11,12
 66.749 408.469 66.749 408.469 57.374 408.469 c 128,-1,13
 47.999 408.469 47.999 408.469 47.999 417.844 c 2,14,-1
 47.999 611.531 l 2,15,8
 47.999 620.906 47.999 620.906 57.374 620.906 c 128,-1,9
EndSplineSet
EndChar
StartChar: numbersign
Encoding: 35 35 6
Width: 704
GlyphClass: 2
Flags: W
Fore
193.625 710.5 m 128,-1,1
 203 710.5 203 710.5 203 701.125 c 2,2,-1
 203 501.938 l 1,3,-1
 437.25 501.938 l 1,4,-1
 437.25 701.125 l 2,5,6
 437.25 710.5 437.25 710.5 446.625 710.5 c 128,-1,7
 456 710.5 456 710.5 456 701.125 c 2,8,-1
 456 501.938 l 1,9,-1
 611.438 501.938 l 2,10,11
 620.812 501.938 620.812 501.938 620.812 492.562 c 128,-1,12
 620.812 483.188 620.812 483.188 611.438 483.188 c 2,13,-1
 456 483.188 l 1,14,-1
 456 209.938 l 1,15,-1
 611.438 209.938 l 2,16,17
 620.812 209.938 620.812 209.938 620.812 200.562 c 128,-1,18
 620.812 191.188 620.812 191.188 611.438 191.188 c 2,19,-1
 456 191.188 l 1,20,-1
 456 9.4375 l 2,21,22
 456 0.0625 456 0.0625 446.625 0.0625 c 128,-1,23
 437.25 0.0625 437.25 0.0625 437.25 9.4375 c 2,24,-1
 437.25 191.188 l 1,25,-1
 203 191.188 l 1,26,-1
 203 9.4375 l 2,27,28
 203 0.0625 203 0.0625 193.625 0.0625 c 128,-1,29
 184.25 0.0625 184.25 0.0625 184.25 9.4375 c 2,30,-1
 184.25 191.188 l 1,31,-1
 27.75 191.188 l 2,32,33
 18.375 191.188 18.375 191.188 18.375 200.562 c 128,-1,34
 18.375 209.938 18.375 209.938 27.75 209.938 c 2,35,-1
 184.25 209.938 l 1,36,-1
 184.25 483.188 l 1,37,-1
 27.75 483.188 l 2,38,39
 18.375 483.188 18.375 483.188 18.375 492.562 c 128,-1,40
 18.375 501.938 18.375 501.938 27.75 501.938 c 2,41,-1
 184.25 501.938 l 1,42,-1
 184.25 701.125 l 2,43,0
 184.25 710.5 184.25 710.5 193.625 710.5 c 128,-1,1
203 483.188 m 1,44,-1
 203 209.938 l 1,45,-1
 437.25 209.938 l 1,46,-1
 437.25 483.188 l 1,47,-1
 203 483.188 l 1,44,-1
EndSplineSet
EndChar
StartChar: dollar
Encoding: 36 36 7
Width: 530
GlyphClass: 2
Flags: W
Fore
248.031 693.781 m 128,-1,1
 257.406 693.781 257.406 693.781 257.406 684.406 c 2,2,-1
 257.406 595.469 l 1,3,-1
 419.812 595.469 l 2,4,5
 429.188 595.469 429.188 595.469 429.188 586.094 c 128,-1,6
 429.188 576.719 429.188 576.719 419.812 576.719 c 2,7,-1
 257.406 576.719 l 1,8,-1
 257.406 354.094 l 1,9,-1
 332.639 354.094 l 2,10,11
 347.715 354.094 347.715 354.094 366.229 348.186 c 128,-1,12
 384.744 342.278 384.744 342.278 405.178 329.599 c 128,-1,13
 425.612 316.92 425.612 316.92 439.197 291.354 c 128,-1,14
 452.781 265.789 452.781 265.789 452.781 231.961 c 0,15,16
 455.198 168.654 455.198 168.654 419.77 132.218 c 128,-1,17
 384.34 95.7812 384.34 95.7812 331.825 95.7812 c 2,18,-1
 257.406 95.7812 l 1,19,-1
 257.406 4.71875 l 2,20,21
 257.406 -4.65625 257.406 -4.65625 248.031 -4.65625 c 128,-1,22
 238.656 -4.65625 238.656 -4.65625 238.656 4.71875 c 2,23,-1
 238.656 95.7812 l 1,24,-1
 71.5312 95.7812 l 2,25,26
 62.1562 95.7812 62.1562 95.7812 62.1562 105.156 c 128,-1,27
 62.1562 114.531 62.1562 114.531 71.5312 114.531 c 2,28,-1
 238.656 114.531 l 1,29,-1
 238.656 335.344 l 1,30,-1
 169.354 335.344 l 2,31,32
 107.649 335.344 107.649 335.344 74.9619 370.234 c 128,-1,33
 42.2734 405.125 42.2734 405.125 42.5 469.431 c 0,34,35
 42.5 524.623 42.5 524.623 76.3965 560.046 c 128,-1,36
 110.293 595.469 110.293 595.469 165.888 595.469 c 2,37,-1
 238.656 595.469 l 1,38,-1
 238.656 684.406 l 2,39,0
 238.656 693.781 238.656 693.781 248.031 693.781 c 128,-1,1
61.25 470.595 m 0,40,41
 61.25 416.927 61.25 416.927 89.8184 385.511 c 128,-1,42
 118.387 354.094 118.387 354.094 179.067 354.094 c 2,43,-1
 238.656 354.094 l 1,44,-1
 238.656 576.719 l 1,45,-1
 176.819 576.719 l 2,46,47
 123.108 576.719 123.108 576.719 92.1787 545.49 c 128,-1,48
 61.25 514.263 61.25 514.263 61.25 470.595 c 0,40,41
257.406 335.344 m 1,49,-1
 257.406 114.531 l 1,50,-1
 320.895 114.531 l 2,51,52
 378.151 114.531 378.151 114.531 406.107 145.361 c 128,-1,53
 434.062 176.192 434.062 176.192 434.062 229.899 c 0,54,55
 434.062 277.255 434.062 277.255 401.859 306.299 c 128,-1,56
 369.656 335.344 369.656 335.344 324.269 335.344 c 2,57,-1
 257.406 335.344 l 1,49,-1
EndSplineSet
EndChar
StartChar: quotesingle
Encoding: 39 39 8
Width: 296
GlyphClass: 2
Flags: W
Fore
145.625 620.906 m 128,-1,1
 155 620.906 155 620.906 155 611.531 c 2,2,-1
 155 417.844 l 2,3,4
 155 408.469 155 408.469 145.625 408.469 c 128,-1,5
 136.25 408.469 136.25 408.469 136.25 417.844 c 2,6,-1
 136.25 611.531 l 2,7,0
 136.25 620.906 136.25 620.906 145.625 620.906 c 128,-1,1
EndSplineSet
EndChar
StartChar: parenleft
Encoding: 40 40 9
Width: 292
GlyphClass: 2
Flags: W
Fore
152.375 700.469 m 4,0,1
 161.75 700.469 161.75 700.469 161.75 691.094 c 4,2,3
 161.75 687.965 161.75 687.965 157.465 683.12 c 4,4,5
 133.032 656.706 133.032 656.706 99.5156 553.57 c 132,-1,6
 66 450.436 66 450.436 66 349.75 c 4,7,8
 74.7178 123.561 74.7178 123.561 156.688 19.5625 c 4,9,10
 161.75 14.5186 161.75 14.5186 161.75 8.875 c 4,11,12
 161.75 -0.5 161.75 -0.5 152.375 -0.5 c 4,13,14
 147.595 -0.5 147.595 -0.5 144.203 4.36328 c 4,15,16
 48.1562 114.84 48.1562 114.84 48.1562 349.75 c 4,17,18
 48.1562 417.345 48.1562 417.345 59.5107 480.736 c 132,-1,19
 70.8662 544.129 70.8662 544.129 87.4756 586.784 c 132,-1,20
 104.086 629.439 104.086 629.439 118.308 656.218 c 132,-1,21
 132.53 682.996 132.53 682.996 142.699 693.801 c 4,22,23
 147.616 700.469 147.616 700.469 152.375 700.469 c 4,0,1
EndSplineSet
EndChar
StartChar: parenright
Encoding: 41 41 10
Width: 244
GlyphClass: 2
Flags: W
Fore
66.625 700.469 m 0,0,1
 57.25 700.469 57.25 700.469 57.25 691.094 c 0,2,3
 57.25 687.965 57.25 687.965 61.5352 683.12 c 0,4,5
 85.9678 656.706 85.9678 656.706 119.484 553.57 c 128,-1,6
 153 450.436 153 450.436 153 349.75 c 0,7,8
 144.282 123.561 144.282 123.561 62.3125 19.5625 c 0,9,10
 57.25 14.5186 57.25 14.5186 57.25 8.875 c 0,11,12
 57.25 -0.5 57.25 -0.5 66.625 -0.5 c 0,13,14
 71.4053 -0.5 71.4053 -0.5 74.7969 4.36328 c 0,15,16
 170.844 114.84 170.844 114.84 170.844 349.75 c 0,17,18
 170.844 417.345 170.844 417.345 159.489 480.736 c 128,-1,19
 148.134 544.129 148.134 544.129 131.524 586.784 c 128,-1,20
 114.914 629.439 114.914 629.439 100.692 656.218 c 128,-1,21
 86.4697 682.996 86.4697 682.996 76.3008 693.801 c 0,22,23
 71.3838 700.469 71.3838 700.469 66.625 700.469 c 0,0,1
EndSplineSet
EndChar
StartChar: asterisk
Encoding: 42 42 11
Width: 442
GlyphClass: 2
Flags: W
Fore
159.781 792.75 m 0,0,1
 165.366 792.895 165.366 792.895 168.156 788.062 c 2,2,-1
 268.781 613.812 l 1,3,-1
 369.375 788.062 l 2,4,5
 374.067 796.188 374.067 796.188 382.188 791.5 c 128,-1,6
 390.313 786.808 390.313 786.808 385.625 778.688 c 2,7,-1
 285 604.438 l 1,8,-1
 486.219 604.438 l 2,9,10
 495.594 604.438 495.594 604.438 495.594 595.062 c 128,-1,11
 495.594 585.688 495.594 585.688 486.219 585.688 c 2,12,-1
 285 585.688 l 1,13,-1
 385.625 411.438 l 2,14,15
 390.313 403.317 390.313 403.317 382.188 398.625 c 128,-1,16
 374.066 393.936 374.066 393.936 369.375 402.062 c 2,17,-1
 268.781 576.312 l 1,18,-1
 168.156 402.062 l 2,19,20
 163.464 393.937 163.464 393.937 155.344 398.625 c 128,-1,21
 147.241 403.305 147.241 403.305 151.938 411.438 c 2,22,-1
 252.531 585.688 l 1,23,-1
 51.3125 585.688 l 2,24,25
 41.9375 585.688 41.9375 585.688 41.9375 595.062 c 128,-1,26
 41.9375 604.438 41.9375 604.438 51.3125 604.438 c 2,27,-1
 252.531 604.438 l 1,28,-1
 151.938 778.688 l 2,29,30
 147.241 786.82 147.241 786.82 155.344 791.5 c 0,31,32
 157.402 792.688 157.402 792.688 159.781 792.75 c 0,0,1
EndSplineSet
EndChar
StartChar: plus
Encoding: 43 43 12
Width: 504
GlyphClass: 2
Flags: W
Fore
319.625 641.031 m 128,-1,1
 329 641.031 329 641.031 329 631.656 c 2,2,-1
 329 399.281 l 1,3,-1
 561.375 399.281 l 2,4,5
 570.75 399.281 570.75 399.281 570.75 389.906 c 128,-1,6
 570.75 380.531 570.75 380.531 561.375 380.531 c 2,7,-1
 329 380.531 l 1,8,-1
 329 148.156 l 2,9,10
 329 138.781 329 138.781 319.625 138.781 c 128,-1,11
 310.25 138.781 310.25 138.781 310.25 148.156 c 2,12,-1
 310.25 380.531 l 1,13,-1
 77.875 380.531 l 2,14,15
 68.5 380.531 68.5 380.531 68.5 389.906 c 128,-1,16
 68.5 399.281 68.5 399.281 77.875 399.281 c 2,17,-1
 310.25 399.281 l 1,18,-1
 310.25 631.656 l 2,19,0
 310.25 641.031 310.25 641.031 319.625 641.031 c 128,-1,1
EndSplineSet
EndChar
StartChar: comma
Encoding: 44 44 13
Width: 142
GlyphClass: 2
Flags: W
Fore
50.832 212.851 m 128,-1,1
 60.207 212.851 60.207 212.851 60.207 203.476 c 2,2,-1
 60.207 9.78809 l 2,3,4
 60.207 0.413086 60.207 0.413086 50.832 0.413086 c 128,-1,5
 41.457 0.413086 41.457 0.413086 41.457 9.78809 c 2,6,-1
 41.457 203.476 l 2,7,0
 41.457 212.851 41.457 212.851 50.832 212.851 c 128,-1,1
EndSplineSet
EndChar
StartChar: hyphen
Encoding: 45 45 14
Width: 268
GlyphClass: 2
Flags: W
Fore
241.062 238.645 m 128,-1,1
 241.062 229.27 241.062 229.27 231.688 229.27 c 2,2,-1
 38 229.27 l 2,3,4
 28.625 229.27 28.625 229.27 28.625 238.645 c 128,-1,5
 28.625 248.02 28.625 248.02 38 248.02 c 2,6,-1
 231.688 248.02 l 2,7,0
 241.062 248.02 241.062 248.02 241.062 238.645 c 128,-1,1
EndSplineSet
EndChar
StartChar: period
Encoding: 46 46 15
Width: 108
GlyphClass: 2
Flags: W
Fore
53.582 9.375 m 128,-1,1
 53.582 0 53.582 0 44.207 0 c 128,-1,2
 34.832 0 34.832 0 34.832 9.375 c 128,-1,3
 34.832 18.75 34.832 18.75 44.207 18.75 c 128,-1,0
 53.582 18.75 53.582 18.75 53.582 9.375 c 128,-1,1
EndSplineSet
EndChar
StartChar: slash
Encoding: 47 47 16
Width: 600
GlyphClass: 2
Flags: W
Fore
52.1719 4.26465 m 132,-1,1
 44.3984 9.50586 44.3984 9.50586 49.6416 17.2793 c 6,2,-1
 495.7 694.615 l 6,3,4
 500.942 702.388 500.942 702.388 508.715 697.145 c 132,-1,5
 516.488 691.901 516.488 691.901 511.244 684.131 c 6,6,-1
 65.1855 6.79492 l 6,7,0
 59.9434 -0.978516 59.9434 -0.978516 52.1719 4.26465 c 132,-1,1
EndSplineSet
EndChar
StartChar: zero
Encoding: 48 48 17
Width: 540
GlyphClass: 2
Flags: W
Fore
266.719 697.688 m 0,0,1
 364.172 697.688 364.172 697.688 426.008 607.28 c 128,-1,2
 487.844 516.872 487.844 516.872 487.844 348 c 0,3,4
 487.844 1.22461 487.844 1.22461 264.75 1.22461 c 0,5,6
 48 1.22461 48 1.22461 48 348 c 0,7,8
 48 525.036 48 525.036 108.383 611.362 c 128,-1,9
 168.767 697.688 168.767 697.688 266.719 697.688 c 0,0,1
267.605 678.846 m 0,10,11
 238.658 678.846 238.658 678.846 211.25 668.647 c 128,-1,12
 183.841 658.449 183.841 658.449 157.026 633.794 c 128,-1,13
 130.212 609.139 130.212 609.139 110.307 572.331 c 128,-1,14
 90.4004 535.523 90.4004 535.523 78.1221 477.718 c 128,-1,15
 65.8438 419.912 65.8438 419.912 65.8438 348 c 0,16,17
 65.8438 20.6172 65.8438 20.6172 265.25 20.6172 c 0,18,19
 362.337 20.6172 362.337 20.6172 416.168 101.504 c 128,-1,20
 470 182.391 470 182.391 470 348 c 0,21,22
 470 427.552 470 427.552 452.113 492.312 c 128,-1,23
 434.227 557.072 434.227 557.072 404.881 596.774 c 128,-1,24
 375.535 636.478 375.535 636.478 340.14 657.662 c 128,-1,25
 304.744 678.846 304.744 678.846 267.605 678.846 c 0,10,11
100.467 696.623 m 2,26,27
 105.709 704.396 105.709 704.396 113.481 699.152 c 128,-1,28
 121.255 693.909 121.255 693.909 116.011 686.139 c 2,29,-1
EndSplineSet
EndChar
StartChar: one
Encoding: 49 49 18
Width: 154
GlyphClass: 2
Flags: W
Fore
99.375 699.904 m 2,0,1
 108.75 699.904 108.75 699.904 108.75 690.529 c 2,2,-1
 108.75 11.748 l 2,3,4
 108.75 2.37305 108.75 2.37305 99.375 2.37305 c 0,5,6
 91.0264 2.7334 91.0264 2.7334 89.5703 11.748 c 1,7,-1
 90 681.154 l 1,8,-1
 8.6875 681.154 l 2,9,10
 -0.688477 681.154 -0.688477 681.154 -0.686523 690.529 c 128,-1,11
 -0.686523 699.904 -0.686523 699.904 8.6875 699.904 c 2,12,-1
 99.375 699.904 l 2,0,1
EndSplineSet
EndChar
StartChar: two
Encoding: 50 50 19
Width: 474
GlyphClass: 2
Flags: W
Fore
247.906 702.602 m 0,0,1
 345.879 702.602 345.879 702.602 390.611 650.78 c 128,-1,2
 435.345 598.959 435.345 598.959 435.344 483.914 c 0,3,4
 435.344 384.301 435.344 384.301 391.592 340.389 c 128,-1,5
 347.84 296.477 347.84 296.477 247.531 296.477 c 0,6,7
 168.57 296.477 168.57 296.477 117.41 251.064 c 128,-1,8
 66.251 205.652 66.251 205.652 66.25 117.289 c 2,9,-1
 66.5938 70.9141 l 2,10,11
 66.9385 24.5391 66.9385 24.5391 66.9375 24.5391 c 1,12,-1
 426.344 24.9453 l 1,13,14
 435.36 23.4902 435.36 23.4902 435.719 15.1641 c 0,15,16
 435.719 5.78906 435.719 5.78906 426.344 5.78906 c 2,17,-1
 57.5625 5.78906 l 2,18,19
 48.1875 5.78906 48.1875 5.78906 48.1875 15.1641 c 2,20,-1
 48.4062 117.289 l 2,21,22
 48.4062 212.596 48.4062 212.596 99.1602 265.161 c 128,-1,23
 149.913 317.727 149.913 317.727 246.219 317.727 c 0,24,25
 338.894 317.727 338.894 317.727 378.197 357.544 c 128,-1,26
 417.501 397.361 417.501 397.361 417.5 483.914 c 0,27,28
 417.5 584.208 417.5 584.208 377.614 633.983 c 128,-1,29
 337.729 683.758 337.729 683.758 248.781 683.758 c 0,30,31
 158.568 683.758 158.568 683.758 113.487 657.532 c 128,-1,32
 68.4062 631.307 68.4062 631.307 68.4062 558.352 c 0,33,34
 68.4062 548.977 68.4062 548.977 59.0312 548.977 c 128,-1,35
 49.6562 548.977 49.6562 548.977 49.6562 558.352 c 0,36,37
 49.6562 643.033 49.6562 643.033 97.2139 672.817 c 128,-1,38
 144.771 702.602 144.771 702.602 247.906 702.602 c 0,0,1
EndSplineSet
EndChar
StartChar: three
Encoding: 51 51 20
Width: 474
GlyphClass: 2
Flags: W
Fore
239.5 697.839 m 0,0,1
 337.393 697.839 337.393 697.839 382.165 655.863 c 128,-1,2
 426.938 613.888 426.938 613.888 426.938 521.151 c 0,3,4
 426.938 441.092 426.938 441.092 414.488 401.567 c 128,-1,5
 402.039 362.043 402.039 362.043 364.199 344.433 c 1,6,7
 401.186 331.465 401.186 331.465 414.062 293.216 c 128,-1,8
 426.938 254.966 426.938 254.966 426.938 188.714 c 0,9,10
 426.938 95.1172 426.938 95.1172 381.508 49.0723 c 128,-1,11
 336.078 3.02637 336.078 3.02637 239.5 3.02637 c 0,12,13
 136.365 3.02637 136.365 3.02637 88.8076 32.8105 c 128,-1,14
 41.25 62.5947 41.25 62.5947 41.25 147.276 c 0,15,16
 41.25 156.651 41.25 156.651 50.625 156.651 c 128,-1,17
 60 156.651 60 156.651 60 147.276 c 0,18,19
 60 74.3213 60 74.3213 105.08 48.0957 c 128,-1,20
 150.161 21.8701 150.161 21.8701 240.375 21.8701 c 0,21,22
 328.813 21.8701 328.813 21.8701 368.953 64.2295 c 128,-1,23
 409.094 106.59 409.094 106.59 409.094 188.714 c 0,24,25
 409.094 233.891 409.094 233.891 402.008 262.26 c 128,-1,26
 394.923 290.628 394.923 290.628 380.73 305.057 c 128,-1,27
 366.539 319.486 366.539 319.486 345.23 325.588 c 128,-1,28
 323.922 331.689 323.922 331.689 295.477 332.334 c 128,-1,29
 267.031 332.979 267.031 332.979 231.438 333.776 c 0,30,31
 220.186 333.604 220.186 333.604 219.473 337.505 c 0,32,33
 219.034 339.903 219.034 339.903 219.906 344.558 c 2,34,35
 218.929 351.549 218.929 351.549 221.611 353.633 c 128,-1,36
 224.295 355.718 224.295 355.718 231.438 355.089 c 0,37,38
 249.236 355.409 249.236 355.409 265.244 355.844 c 128,-1,39
 281.253 356.279 281.253 356.279 295.477 357.219 c 128,-1,40
 309.7 358.157 309.7 358.157 322.138 360.3 c 128,-1,41
 334.574 362.443 334.574 362.443 345.23 366.179 c 128,-1,42
 355.887 369.914 355.887 369.914 364.761 375.941 c 128,-1,43
 373.635 381.971 373.635 381.971 380.73 390.68 c 128,-1,44
 387.827 399.39 387.827 399.39 393.146 411.48 c 128,-1,45
 398.464 423.572 398.464 423.572 402.008 439.434 c 128,-1,46
 405.553 455.295 405.553 455.295 407.323 475.628 c 128,-1,47
 409.094 495.96 409.094 495.96 409.094 521.151 c 0,48,49
 409.094 600.519 409.094 600.519 369.234 639.757 c 128,-1,50
 329.374 678.995 329.374 678.995 240.375 678.995 c 0,51,52
 150.161 678.995 150.161 678.995 105.08 652.77 c 128,-1,53
 60 626.544 60 626.544 60 553.589 c 0,54,55
 60 544.214 60 544.214 50.625 544.214 c 128,-1,56
 41.25 544.214 41.25 544.214 41.25 553.589 c 0,57,58
 41.25 638.271 41.25 638.271 88.8076 668.055 c 128,-1,59
 136.365 697.839 136.365 697.839 239.5 697.839 c 0,0,1
EndSplineSet
EndChar
StartChar: four
Encoding: 52 52 21
Width: 512
GlyphClass: 2
Flags: W
Fore
374.469 703.383 m 0,0,1
 382.75 703.383 382.75 703.383 382.75 694.289 c 2,2,-1
 382.75 217.07 l 1,3,-1
 473.938 217.07 l 2,4,5
 483.311 217.07 483.311 217.07 483.312 207.695 c 128,-1,6
 483.312 198.32 483.312 198.32 473.938 198.32 c 2,7,-1
 382.75 198.32 l 1,8,-1
 382.75 15.5391 l 2,9,10
 382.75 6.16406 382.75 6.16406 373.375 6.16406 c 128,-1,11
 364 6.16406 364 6.16406 364 15.5391 c 2,12,-1
 364 198.32 l 1,13,-1
 54.7188 198.32 l 2,14,15
 20.3887 198.32 20.3887 198.32 38.4688 226.445 c 2,16,-1
 366.094 698.695 l 2,17,18
 368.883 703.523 368.883 703.523 374.469 703.383 c 0,0,1
364 662.914 m 1,19,-1
 54.7188 217.07 l 1,20,-1
 364 217.07 l 1,21,-1
 364 662.914 l 1,19,-1
EndSplineSet
EndChar
StartChar: five
Encoding: 53 53 22
Width: 480
GlyphClass: 2
Flags: W
Fore
65.625 697.57 m 2,0,-1
 437.312 697.57 l 2,1,2
 446.688 697.57 446.688 697.57 446.688 688.195 c 128,-1,3
 446.688 678.82 446.688 678.82 437.312 678.82 c 2,4,-1
 75 678.82 l 1,5,-1
 75 414.789 l 1,6,-1
 189.656 415.602 l 2,7,8
 331.846 415.602 331.846 415.602 388.657 369.21 c 128,-1,9
 445.469 322.818 445.469 322.818 445.469 205.164 c 0,10,11
 445.469 108.573 445.469 108.573 390.771 55.0244 c 128,-1,12
 336.073 1.47656 336.073 1.47656 210.031 1.47656 c 0,13,14
 141.429 1.47656 141.429 1.47656 98.5576 33.8125 c 128,-1,15
 55.6875 66.1484 55.6875 66.1484 55.6875 138.789 c 0,16,17
 55.6875 148.164 55.6875 148.164 65.0625 148.164 c 128,-1,18
 74.4375 148.164 74.4375 148.164 74.4375 138.789 c 0,19,20
 74.4375 80.7666 74.4375 80.7666 108.994 50.543 c 128,-1,21
 143.55 20.3203 143.55 20.3203 210.906 20.3203 c 0,22,23
 324.284 20.3203 324.284 20.3203 375.955 69.5186 c 128,-1,24
 427.625 118.717 427.625 118.717 427.625 205.164 c 0,25,26
 427.625 276 427.625 276 406.024 316.352 c 128,-1,27
 384.425 356.703 384.425 356.703 331.375 376.371 c 128,-1,28
 278.326 396.039 278.326 396.039 183.688 396.039 c 2,29,-1
 65.625 396.039 l 2,30,31
 56.25 396.039 56.25 396.039 56.25 405.414 c 2,32,-1
 56.25 688.195 l 2,33,34
 56.25 697.57 56.25 697.57 65.625 697.57 c 2,0,-1
EndSplineSet
EndChar
StartChar: six
Encoding: 54 54 23
Width: 458
GlyphClass: 2
Flags: W
Fore
234.594 695.477 m 0,0,1
 320.703 695.477 320.703 695.477 366.508 638.656 c 128,-1,2
 412.312 581.836 412.312 581.836 412.312 492.914 c 0,3,4
 412.312 483.539 412.312 483.539 402.938 483.539 c 128,-1,5
 393.562 483.539 393.562 483.539 393.562 492.914 c 0,6,7
 393.562 565.146 393.562 565.146 349.733 620.889 c 128,-1,8
 305.905 676.633 305.905 676.633 233.719 676.633 c 0,9,10
 166.817 676.633 166.817 676.633 118.407 621.967 c 128,-1,11
 69.999 567.301 69.999 567.301 70 464.789 c 2,12,-1
 70.5625 316.289 l 1,13,14
 74.2871 318.003 74.2871 318.003 87.6553 325.185 c 128,-1,15
 101.022 332.366 101.022 332.366 111.564 336.604 c 128,-1,16
 122.106 340.842 122.106 340.842 140.11 346.42 c 128,-1,17
 158.115 351.998 158.115 351.998 182.399 354.784 c 128,-1,18
 206.684 357.57 206.684 357.57 236.25 357.57 c 0,19,20
 326.208 357.57 326.208 357.57 371.104 314.791 c 128,-1,21
 416 272.013 416 272.013 416 177.789 c 0,22,23
 416 85.96 416 85.96 371.073 43.5303 c 128,-1,24
 326.146 1.10156 326.146 1.10156 234.281 1.10156 c 0,25,26
 134.139 1.10156 134.139 1.10156 93.1475 61.0156 c 128,-1,27
 52.1562 120.93 52.1562 120.93 52.1562 271.789 c 2,28,-1
 52.1562 464.789 l 2,29,30
 52.1572 570.744 52.1572 570.744 104.047 633.11 c 128,-1,31
 155.937 695.477 155.937 695.477 234.594 695.477 c 0,0,1
235.75 338.164 m 0,32,33
 154.237 338.164 154.237 338.164 112.119 315.003 c 128,-1,34
 70 291.843 70 291.843 70 268.987 c 0,35,36
 70 222.905 70 222.905 73.5674 188.362 c 128,-1,37
 77.1338 153.819 77.1338 153.819 87.5918 120.652 c 128,-1,38
 98.0498 87.4854 98.0498 87.4854 115.771 66.46 c 128,-1,39
 133.49 45.4346 133.49 45.4346 163.133 32.6895 c 128,-1,40
 192.775 19.9453 192.775 19.9453 233.375 19.9453 c 0,41,42
 317.589 19.9453 317.589 19.9453 357.873 59.2686 c 128,-1,43
 398.156 98.5918 398.156 98.5918 398.156 177.789 c 0,44,45
 398.156 258.8 398.156 258.8 358.042 298.482 c 128,-1,46
 317.927 338.164 317.927 338.164 235.75 338.164 c 0,32,33
EndSplineSet
EndChar
StartChar: seven
Encoding: 55 55 24
Width: 500
GlyphClass: 2
Flags: W
Fore
481.219 685.184 m 2,0,1
 515.548 685.184 515.548 685.184 497.469 657.059 c 2,2,-1
 52.8438 -4.19141 l 2,3,4
 48.1514 -12.3184 48.1514 -12.3184 40.0303 -7.62891 c 128,-1,5
 31.9287 -2.9502 31.9287 -2.9502 36.625 5.18359 c 2,6,-1
 481.219 666.434 l 1,7,-1
 45 666.434 l 2,8,9
 35.625 666.434 35.625 666.434 35.625 675.809 c 128,-1,10
 35.625 685.184 35.625 685.184 45 685.184 c 2,11,-1
 481.219 685.184 l 2,0,1
EndSplineSet
EndChar
StartChar: eight
Encoding: 56 56 25
Width: 508
GlyphClass: 2
Flags: W
Fore
256.375 701.298 m 0,0,1
 305.362 701.298 305.362 701.298 341.844 690.258 c 128,-1,2
 378.325 679.218 378.325 679.218 399.357 662.01 c 128,-1,3
 420.39 644.802 420.39 644.802 433.114 619.291 c 128,-1,4
 445.839 593.78 445.839 593.78 449.95 569.568 c 128,-1,5
 454.062 545.356 454.062 545.356 454.062 515.579 c 0,6,7
 454.062 483.388 454.062 483.388 450.437 459.622 c 128,-1,8
 446.811 435.856 446.811 435.856 436.825 412.184 c 128,-1,9
 426.841 388.51 426.841 388.51 406.062 372.715 c 128,-1,10
 385.282 356.921 385.282 356.921 353.938 349.61 c 1,11,12
 384.326 343.868 384.326 343.868 406.127 331.781 c 128,-1,13
 427.928 319.694 427.928 319.694 440.016 305.338 c 128,-1,14
 452.104 290.981 452.104 290.981 458.963 270.098 c 128,-1,15
 465.822 249.214 465.822 249.214 467.692 231.146 c 128,-1,16
 469.562 213.077 469.562 213.077 469.562 188.298 c 0,17,18
 469.562 105.749 469.562 105.749 419.13 52.9609 c 128,-1,19
 368.696 0.172852 368.696 0.172852 265.875 0.172852 c 0,20,21
 157.059 0.172852 157.059 0.172852 104.592 53.002 c 128,-1,22
 52.125 105.832 52.125 105.832 52.125 190.267 c 0,23,24
 52.125 321.022 52.125 321.022 166.812 347.079 c 1,25,26
 132.094 353.732 132.094 353.732 108.675 369.453 c 128,-1,27
 85.2549 385.174 85.2549 385.174 73.4834 409.125 c 128,-1,28
 61.7119 433.075 61.7119 433.075 57.1533 458.505 c 128,-1,29
 52.5938 483.935 52.5938 483.935 52.5938 517.548 c 0,30,31
 52.5938 555.4 52.5938 555.4 62.9053 586.841 c 128,-1,32
 73.2168 618.281 73.2168 618.281 95.7393 644.838 c 128,-1,33
 118.263 671.395 118.263 671.395 159.22 686.347 c 128,-1,34
 200.177 701.298 200.177 701.298 256.375 701.298 c 0,0,1
256.375 683.454 m 0,35,36
 72 683.454 72 683.454 72 517.048 c 0,37,38
 72 484.693 72 484.693 80.9697 457.709 c 128,-1,39
 89.9385 430.724 89.9385 430.724 109.961 407.278 c 128,-1,40
 129.983 383.832 129.983 383.832 167.327 370.565 c 128,-1,41
 204.671 357.298 204.671 357.298 256.375 357.298 c 0,42,43
 308.824 357.298 308.824 357.298 345.411 370.015 c 128,-1,44
 381.997 382.731 381.997 382.731 400.786 405.968 c 128,-1,45
 419.573 429.205 419.573 429.205 427.396 455.36 c 128,-1,46
 435.219 481.517 435.219 481.517 435.219 514.673 c 0,47,48
 435.219 551.593 435.219 551.593 427.066 580.199 c 128,-1,49
 418.914 608.805 418.914 608.805 399.72 633.085 c 128,-1,50
 380.526 657.365 380.526 657.365 344.319 670.409 c 128,-1,51
 308.114 683.454 308.114 683.454 256.375 683.454 c 0,35,36
265.875 339.173 m 0,52,53
 71.5 339.173 71.5 339.173 71.5 189.767 c 0,54,55
 71.5 157.792 71.5 157.792 82.0625 128.615 c 128,-1,56
 92.626 99.4395 92.626 99.4395 114.43 73.9336 c 128,-1,57
 136.233 48.4277 136.233 48.4277 175.296 33.2217 c 128,-1,58
 214.358 18.0166 214.358 18.0166 265.875 18.0166 c 0,59,60
 318.093 18.0166 318.093 18.0166 355.81 32.6475 c 128,-1,61
 393.526 47.2783 393.526 47.2783 413.324 72.668 c 128,-1,62
 433.122 98.0566 433.122 98.0566 441.921 126.265 c 128,-1,63
 450.719 154.474 450.719 154.474 450.719 187.423 c 0,64,65
 450.719 261.499 450.719 261.499 409.12 300.336 c 128,-1,66
 367.522 339.173 367.522 339.173 265.875 339.173 c 0,52,53
EndSplineSet
EndChar
StartChar: nine
Encoding: 57 57 26
Width: 440
GlyphClass: 2
Flags: W
Fore
211.376 689.438 m 0,0,1
 276.646 689.438 276.646 689.438 314.605 667.227 c 128,-1,2
 352.563 645.016 352.563 645.016 373.031 585.208 c 128,-1,3
 393.5 525.4 393.5 525.4 393.5 418.751 c 2,4,-1
 393.5 225.751 l 2,5,6
 393.5 106.595 393.5 106.595 343.481 50.8291 c 128,-1,7
 293.463 -4.93652 293.463 -4.93652 211.063 -4.93652 c 0,8,9
 178.29 -4.93652 178.29 -4.93652 142.176 15.207 c 128,-1,10
 106.061 35.3506 106.061 35.3506 86.8135 66.6885 c 0,11,12
 80.7354 74.8301 80.7354 74.8301 80.5635 79.3447 c 0,13,14
 80.5605 88.7197 80.5605 88.7197 89.9385 88.7197 c 0,15,16
 94.583 88.1211 94.583 88.1211 95.6191 87.2178 c 128,-1,17
 96.6562 86.3154 96.6562 86.3154 99.5635 82.3135 c 0,18,19
 117.285 54.7988 117.285 54.7988 149.224 33.8262 c 128,-1,20
 181.162 12.8535 181.162 12.8535 211.938 13.9072 c 0,21,22
 244.929 13.9072 244.929 13.9072 272.214 23.6904 c 128,-1,23
 299.5 33.4736 299.5 33.4736 323.843 56.0186 c 128,-1,24
 348.186 78.5645 348.186 78.5645 361.922 121.809 c 128,-1,25
 375.657 165.054 375.657 165.054 375.657 225.751 c 2,26,-1
 375.094 401.251 l 1,27,28
 353.789 365.43 353.789 365.43 303.759 349.199 c 128,-1,29
 253.729 332.97 253.729 332.97 209.407 332.97 c 0,30,31
 171.693 332.97 171.693 332.97 140.762 341.561 c 128,-1,32
 109.831 350.15 109.831 350.15 84.0938 368.9 c 128,-1,33
 58.3564 387.649 58.3564 387.649 44.0068 421.466 c 128,-1,34
 29.6572 455.281 29.6572 455.281 29.6572 501.751 c 0,35,36
 29.6572 589.589 29.6572 589.589 84.0947 639.514 c 128,-1,37
 138.533 689.438 138.533 689.438 211.376 689.438 c 0,0,1
212.282 670.595 m 0,38,39
 143.279 670.595 143.279 670.595 95.3896 621.681 c 128,-1,40
 47.5 572.767 47.5 572.767 47.5 501.751 c 0,41,42
 47.5 424.977 47.5 424.977 91.9229 388.676 c 128,-1,43
 136.346 352.376 136.346 352.376 209.907 352.376 c 0,44,45
 269.805 352.376 269.805 352.376 322.731 388.781 c 128,-1,46
 375.657 425.187 375.657 425.187 375.657 464.751 c 0,47,48
 375.657 512.284 375.657 512.284 368.067 547.825 c 128,-1,49
 360.479 583.366 360.479 583.366 342.635 612.085 c 128,-1,50
 324.793 640.804 324.793 640.804 292.076 655.699 c 128,-1,51
 259.36 670.595 259.36 670.595 212.282 670.595 c 0,38,39
EndSplineSet
EndChar
StartChar: colon
Encoding: 58 58 27
Width: 192
GlyphClass: 2
Flags: W
Fore
89.0469 382.47 m 128,-1,1
 89.0469 373.095 89.0469 373.095 79.6719 373.095 c 128,-1,2
 70.2969 373.095 70.2969 373.095 70.2969 382.47 c 128,-1,3
 70.2969 391.845 70.2969 391.845 79.6719 391.845 c 128,-1,0
 89.0469 391.845 89.0469 391.845 89.0469 382.47 c 128,-1,1
89.0469 152.47 m 128,-1,5
 89.0469 143.095 89.0469 143.095 79.6719 143.095 c 128,-1,6
 70.2969 143.095 70.2969 143.095 70.2969 152.47 c 128,-1,7
 70.2969 161.845 70.2969 161.845 79.6719 161.845 c 128,-1,4
 89.0469 161.845 89.0469 161.845 89.0469 152.47 c 128,-1,5
EndSplineSet
EndChar
StartChar: semicolon
Encoding: 59 59 28
Width: 188
GlyphClass: 2
Flags: W
Fore
91.7969 1.06445 m 128,-1,1
 82.4219 1.06445 82.4219 1.06445 82.4219 10.4395 c 2,2,-1
 82.4219 203.127 l 2,3,4
 82.4219 212.502 82.4219 212.502 91.7969 212.502 c 128,-1,5
 101.172 212.502 101.172 212.502 101.172 203.127 c 2,6,-1
 101.172 10.4395 l 2,7,0
 101.172 1.06445 101.172 1.06445 91.7969 1.06445 c 128,-1,1
101.173 422.596 m 128,-1,9
 101.173 413.221 101.173 413.221 91.7979 413.221 c 128,-1,10
 82.4229 413.221 82.4229 413.221 82.4229 422.596 c 128,-1,11
 82.4229 431.972 82.4229 431.972 91.7979 431.972 c 128,-1,8
 101.173 431.972 101.173 431.972 101.173 422.596 c 128,-1,9
EndSplineSet
EndChar
StartChar: less
Encoding: 60 60 29
Width: 430
GlyphClass: 2
Flags: W
Fore
18.4297 362.91 m 6,0,1
 10.667 373.173 10.667 373.173 18.7998 383.741 c 6,2,-1
 320.062 741.992 l 5,3,4
 324.753 750.119 324.753 750.119 332.873 745.43 c 132,-1,5
 341 740.739 341 740.739 336.312 732.617 c 5,6,-1
 37.5 373.738 l 5,7,-1
 336.312 15.3672 l 5,8,9
 340.999 7.24609 340.999 7.24609 332.873 2.55469 c 132,-1,10
 324.753 -2.13477 324.753 -2.13477 320.062 5.99219 c 5,11,-1
 18.4297 362.91 l 6,0,1
EndSplineSet
EndChar
StartChar: equal
Encoding: 61 61 30
Width: 486
GlyphClass: 2
Flags: W
Fore
397.938 495.108 m 128,-1,1
 397.938 485.733 397.938 485.733 388.562 485.733 c 2,2,-1
 70.875 485.733 l 2,3,4
 61.5 485.733 61.5 485.733 61.5 495.108 c 128,-1,5
 61.5 504.483 61.5 504.483 70.875 504.483 c 2,6,-1
 388.562 504.483 l 2,7,0
 397.938 504.483 397.938 504.483 397.938 495.108 c 128,-1,1
397.938 259.445 m 128,-1,9
 397.938 250.07 397.938 250.07 388.562 250.07 c 2,10,-1
 70.875 250.07 l 2,11,12
 61.5 250.07 61.5 250.07 61.5 259.445 c 128,-1,13
 61.5 268.82 61.5 268.82 70.875 268.82 c 2,14,-1
 388.562 268.82 l 2,15,8
 397.938 268.82 397.938 268.82 397.938 259.445 c 128,-1,9
EndSplineSet
EndChar
StartChar: greater
Encoding: 62 62 31
Width: 432
GlyphClass: 2
Flags: W
Fore
374.57 354.91 m 2,0,1
 382.333 365.173 382.333 365.173 374.2 375.741 c 2,2,-1
 72.9385 733.992 l 1,3,4
 68.2471 742.119 68.2471 742.119 60.127 737.43 c 128,-1,5
 52 732.739 52 732.739 56.6885 724.617 c 1,6,-1
 355.5 365.738 l 1,7,-1
 56.6885 7.36719 l 1,8,9
 52.001 -0.753906 52.001 -0.753906 60.127 -5.44531 c 128,-1,10
 68.2471 -10.1348 68.2471 -10.1348 72.9385 -2.00781 c 1,11,-1
 374.57 354.91 l 2,0,1
EndSplineSet
EndChar
StartChar: question
Encoding: 63 63 32
Width: 526
GlyphClass: 2
Flags: W
Fore
243.688 719.008 m 4,0,1
 324.548 719.008 324.548 719.008 371.837 682.14 c 132,-1,2
 419.125 645.271 419.125 645.271 419.125 574.32 c 4,3,4
 419.125 496.363 419.125 496.363 384.257 461.623 c 132,-1,5
 349.389 426.883 349.389 426.883 281.312 426.883 c 4,6,7
 228.394 426.883 228.394 426.883 202.712 401.082 c 132,-1,8
 177.031 375.28 177.031 375.28 177.031 321.695 c 6,9,-1
 177.469 225.164 l 6,10,11
 177.469 215.789 177.469 215.789 168.094 215.789 c 132,-1,12
 158.717 215.789 158.717 215.789 158.719 225.164 c 6,13,-1
 159.188 321.695 l 6,14,15
 159.188 448.133 159.188 448.133 280 448.133 c 4,16,17
 346.856 448.133 346.856 448.133 374.068 478.913 c 132,-1,18
 401.281 509.692 401.281 509.692 401.281 574.32 c 4,19,20
 401.281 632.123 401.281 632.123 356.958 666.144 c 132,-1,21
 312.636 700.164 312.636 700.164 244.562 700.164 c 4,22,23
 181.228 700.164 181.228 700.164 136.208 672.03 c 132,-1,24
 91.1875 643.897 91.1875 643.897 91.1875 591.758 c 5,25,26
 88.2803 587.756 88.2803 587.756 87.2432 586.854 c 132,-1,27
 86.2061 585.95 86.2061 585.95 81.5625 585.352 c 4,28,29
 72.1846 585.352 72.1846 585.352 72.1875 594.727 c 4,30,31
 72.1875 649.776 72.1875 649.776 122.421 684.392 c 132,-1,32
 172.653 719.008 172.653 719.008 243.688 719.008 c 4,0,1
177.461 20.4717 m 132,-1,34
 177.461 11.0957 177.461 11.0957 168.086 11.0957 c 132,-1,35
 158.711 11.0957 158.711 11.0957 158.711 20.4717 c 132,-1,36
 158.711 29.8467 158.711 29.8467 168.086 29.8467 c 132,-1,33
 177.461 29.8467 177.461 29.8467 177.461 20.4717 c 132,-1,34
EndSplineSet
EndChar
StartChar: at
Encoding: 64 64 33
Width: 818
GlyphClass: 2
Flags: W
Fore
366.5 651.977 m 0,0,1
 525.03 651.977 525.03 651.977 616.266 542.948 c 128,-1,2
 707.5 433.92 707.5 433.92 707.5 249.102 c 0,3,4
 707.5 193.172 707.5 193.172 704.15 146.991 c 128,-1,5
 700.801 100.812 700.801 100.812 690.941 53.4268 c 128,-1,6
 681.083 6.04297 681.083 6.04297 665.006 -26.2549 c 128,-1,7
 648.928 -58.5527 648.928 -58.5527 621.54 -78.9756 c 128,-1,8
 594.152 -99.3984 594.152 -99.3984 557.676 -99.3984 c 0,9,10
 536.126 -99.3984 536.126 -99.3984 520.293 -90.3809 c 128,-1,11
 504.46 -81.3633 504.46 -81.3633 496.203 -66.3096 c 128,-1,12
 487.945 -51.2568 487.945 -51.2568 484.016 -36.3721 c 128,-1,13
 480.087 -21.4883 480.087 -21.4883 479.219 -5.20312 c 2,14,-1
 479.219 113.57 l 1,15,16
 468.361 73.0518 468.361 73.0518 436.862 49.8105 c 128,-1,17
 405.364 26.5703 405.364 26.5703 358.312 26.5703 c 0,18,19
 282.704 26.5703 282.704 26.5703 251.117 84.3555 c 128,-1,20
 219.531 142.142 219.531 142.142 219.531 261.852 c 0,21,22
 219.531 373.994 219.531 373.994 250.784 426.767 c 128,-1,23
 282.036 479.539 282.036 479.539 356.343 479.539 c 0,24,25
 427.707 479.539 427.707 479.539 462.838 431.335 c 128,-1,26
 497.969 383.131 497.969 383.131 497.969 261.852 c 2,27,-1
 497.969 6.2998 l 2,28,29
 497.969 -30.4834 497.969 -30.4834 512.894 -55.5029 c 128,-1,30
 527.818 -80.5234 527.818 -80.5234 558.375 -80.5234 c 0,31,32
 616.63 -80.5234 616.63 -80.5234 652.643 10.6943 c 128,-1,33
 688.656 101.911 688.656 101.911 688.656 249.977 c 0,34,35
 688.656 341.563 688.656 341.563 663.372 415.534 c 128,-1,36
 638.088 489.505 638.088 489.505 594.06 537.051 c 128,-1,37
 550.031 584.596 550.031 584.596 491.817 609.958 c 128,-1,38
 433.604 635.32 433.604 635.32 366.5 635.32 c 0,39,40
 306.905 635.32 306.905 635.32 253.953 611.211 c 128,-1,41
 201.001 587.102 201.001 587.102 158.837 540.672 c 128,-1,42
 116.673 494.241 116.673 494.241 92.0078 418.457 c 128,-1,43
 67.3428 342.673 67.3428 342.673 67.3428 246.977 c 0,44,45
 67.3428 192.196 67.3428 192.196 81.7891 142.152 c 128,-1,46
 96.2354 92.1084 96.2354 92.1084 115.429 59.4551 c 128,-1,47
 134.623 26.8018 134.623 26.8018 160.489 -1.90137 c 128,-1,48
 186.355 -30.6035 186.355 -30.6035 202.188 -43.2568 c 128,-1,49
 218.019 -55.9111 218.019 -55.9111 232.75 -65.3984 c 0,50,51
 236.751 -68.3047 236.751 -68.3047 237.654 -69.3418 c 128,-1,52
 238.558 -70.3789 238.558 -70.3789 239.156 -75.0234 c 0,53,54
 239.156 -84.4004 239.156 -84.4004 229.781 -84.3984 c 0,55,56
 225.269 -84.2256 225.269 -84.2256 217.125 -78.1484 c 0,57,58
 48.5 25.4189 48.5 25.4189 48.5 246.102 c 0,59,60
 48.5 348.511 48.5 348.511 74.1963 427.99 c 128,-1,61
 99.8916 507.471 99.8916 507.471 144.534 555.418 c 128,-1,62
 189.177 603.365 189.177 603.365 245.39 627.671 c 128,-1,63
 301.603 651.977 301.603 651.977 366.5 651.977 c 0,0,1
355.469 460.695 m 0,64,65
 293.497 460.695 293.497 460.695 265.437 415.054 c 128,-1,66
 237.375 369.413 237.375 369.413 237.375 261.852 c 0,67,68
 237.375 45.9766 237.375 45.9766 357.812 45.9766 c 0,69,70
 480.125 45.9766 480.125 45.9766 480.125 210.258 c 0,71,72
 480.125 311.131 480.125 311.131 468.335 364.49 c 128,-1,73
 456.544 417.851 456.544 417.851 430.501 439.273 c 128,-1,74
 404.458 460.695 404.458 460.695 355.469 460.695 c 0,64,65
EndSplineSet
EndChar
StartChar: bracketleft
Encoding: 91 91 60
Width: 338
GlyphClass: 2
Flags: W
Fore
71.625 746.904 m 6,0,-1
 214.312 746.904 l 6,1,2
 223.687 746.904 223.687 746.904 223.687 737.529 c 132,-1,3
 223.688 728.154 223.688 728.154 214.312 728.154 c 6,4,-1
 81 728.154 l 5,5,-1
 81 20.123 l 5,6,-1
 214.312 20.123 l 6,7,8
 223.688 20.123 223.688 20.123 223.687 10.748 c 132,-1,9
 223.687 1.37305 223.687 1.37305 214.312 1.37305 c 6,10,-1
 71.625 1.37305 l 6,11,12
 62.25 1.37305 62.25 1.37305 62.25 10.748 c 6,13,-1
 62.25 737.529 l 6,14,15
 62.25 746.904 62.25 746.904 71.625 746.904 c 6,0,-1
EndSplineSet
EndChar
StartChar: backslash
Encoding: 92 92 61
Width: 699
GlyphClass: 2
Flags: W
Fore
517.828 4.26465 m 128,-1,1
 525.602 9.50586 525.602 9.50586 520.358 17.2793 c 2,2,-1
 74.2998 694.615 l 2,3,4
 69.0576 702.388 69.0576 702.388 61.2852 697.145 c 128,-1,5
 53.5117 691.901 53.5117 691.901 58.7559 684.131 c 2,6,-1
 504.814 6.79492 l 2,7,0
 510.057 -0.978516 510.057 -0.978516 517.828 4.26465 c 128,-1,1
EndSplineSet
EndChar
StartChar: bracketright
Encoding: 93 93 62
Width: 342
GlyphClass: 2
Flags: W
Fore
229.375 746.904 m 2,0,-1
 86.6875 746.904 l 2,1,2
 77.3135 746.904 77.3135 746.904 77.3135 737.529 c 128,-1,3
 77.3115 728.154 77.3115 728.154 86.6875 728.154 c 2,4,-1
 220 728.154 l 1,5,-1
 220 20.123 l 1,6,-1
 86.6875 20.123 l 2,7,8
 77.3115 20.123 77.3115 20.123 77.3135 10.748 c 128,-1,9
 77.3135 1.37305 77.3135 1.37305 86.6875 1.37305 c 2,10,-1
 229.375 1.37305 l 2,11,12
 238.75 1.37305 238.75 1.37305 238.75 10.748 c 2,13,-1
 238.75 737.529 l 2,14,15
 238.75 746.904 238.75 746.904 229.375 746.904 c 2,0,-1
EndSplineSet
EndChar
StartChar: asciicircum
Encoding: 94 94 63
Width: 438
GlyphClass: 2
Flags: W
Fore
195.625 800.664 m 2,0,1
 197.562 803.057 197.562 803.057 202 802.727 c 0,2,3
 206.379 802.969 206.379 802.969 208.406 800.664 c 2,4,-1
 360.188 561.695 l 2,5,6
 366.093 554.403 366.093 554.403 358.812 548.508 c 128,-1,7
 351.521 542.603 351.521 542.603 345.625 549.883 c 2,8,-1
 202 775.508 l 1,9,-1
 60.4062 549.883 l 2,10,11
 54.5107 542.603 54.5107 542.603 47.2188 548.508 c 128,-1,12
 39.9385 554.403 39.9385 554.403 45.8438 561.695 c 2,13,-1
 195.625 800.664 l 2,0,1
EndSplineSet
EndChar
StartChar: underscore
Encoding: 95 95 64
Width: 508
GlyphClass: 2
Flags: W
Fore
450 11.5908 m 128,-1,1
 450 2.21582 450 2.21582 440.625 2.21582 c 2,2,-1
 40.875 2.21582 l 2,3,4
 31.5 2.21582 31.5 2.21582 31.5 11.5908 c 128,-1,5
 31.5 20.9658 31.5 20.9658 40.875 20.9658 c 2,6,-1
 440.625 20.9658 l 2,7,0
 450 20.9658 450 20.9658 450 11.5908 c 128,-1,1
EndSplineSet
EndChar
StartChar: grave
Encoding: 96 96 65
Width: 362
GlyphClass: 2
Flags: W
Fore
264.216 525.227 m 128,-1,1
 270.845 531.855 270.845 531.855 264.216 538.485 c 2,2,-1
 95.2578 726.442 l 2,3,4
 88.6299 733.072 88.6299 733.072 82 726.442 c 128,-1,5
 75.3711 719.813 75.3711 719.813 82 713.185 c 2,6,-1
 250.958 525.227 l 2,7,0
 257.587 518.598 257.587 518.598 264.216 525.227 c 128,-1,1
EndSplineSet
EndChar
StartChar: a
Encoding: 97 97 66
Width: 362
GlyphClass: 2
Flags: W
Fore
180.98 457.318 m 0,0,1
 250.969 457.318 250.969 457.318 286.784 403.365 c 128,-1,2
 322.6 349.413 322.6 349.413 322.6 226.631 c 2,3,-1
 322.6 -3.50684 l 2,4,5
 322.6 -12.8818 322.6 -12.8818 313.225 -12.8818 c 128,-1,6
 303.85 -12.8818 303.85 -12.8818 303.85 -3.50684 c 2,7,-1
 303.85 78.3682 l 1,8,9
 282.944 0.350586 282.944 0.350586 182.949 0.350586 c 0,10,11
 106.709 0.350586 106.709 0.350586 75.4316 54.3145 c 128,-1,12
 44.1553 108.277 44.1553 108.277 44.1553 226.631 c 0,13,14
 44.1553 340.692 44.1553 340.692 75.8555 399.005 c 128,-1,15
 107.555 457.318 107.555 457.318 180.98 457.318 c 0,0,1
180.105 438.476 m 0,16,17
 119.18 438.476 119.18 438.476 90.5898 387.185 c 128,-1,18
 62 335.895 62 335.895 62 226.631 c 0,19,20
 62 119.859 62 119.859 91.6934 69.8076 c 128,-1,21
 121.387 19.7559 121.387 19.7559 182.449 19.7559 c 0,22,23
 219.607 19.7559 219.607 19.7559 244.926 32.3506 c 128,-1,24
 270.243 44.9443 270.243 44.9443 282.663 68.3252 c 128,-1,25
 295.083 91.7051 295.083 91.7051 299.92 116.886 c 128,-1,26
 304.756 142.066 304.756 142.066 304.756 175.043 c 0,27,28
 304.756 324.71 304.756 324.71 277.943 381.593 c 128,-1,29
 251.132 438.476 251.132 438.476 180.105 438.476 c 0,16,17
EndSplineSet
KernsSLIFO: 75 -48 0 0 15 -84 0 0 13 -388 0 0
EndChar
StartChar: b
Encoding: 98 98 67
Width: 384
GlyphClass: 2
Flags: W
Fore
199.77 -0.484375 m 0,0,1
 128.998 -0.484375 128.998 -0.484375 89.124 56.4131 c 128,-1,2
 49.25 113.311 49.25 113.311 49.25 235.203 c 2,3,-1
 49.25 649.642 l 2,4,5
 49.25 659.017 49.25 659.017 58.625 659.017 c 128,-1,6
 68 659.017 68 659.017 68 649.642 c 2,7,-1
 68 393.966 l 1,8,9
 78.3203 432.481 78.3203 432.481 113.176 452.232 c 128,-1,10
 148.03 471.984 148.03 471.984 197.8 471.984 c 0,11,12
 273.875 471.984 273.875 471.984 307.584 412.941 c 128,-1,13
 341.294 353.898 341.294 353.898 341.294 235.203 c 0,14,15
 341.294 -0.484375 341.294 -0.484375 199.77 -0.484375 c 0,0,1
200.645 18.3594 m 0,16,17
 323.45 18.3594 323.45 18.3594 323.45 235.203 c 0,18,19
 323.45 342.281 323.45 342.281 291.312 397.43 c 128,-1,20
 259.174 452.578 259.174 452.578 198.3 452.578 c 0,21,22
 161.061 452.578 161.061 452.578 134.42 439.792 c 128,-1,23
 107.78 427.007 107.78 427.007 93.6504 404.201 c 128,-1,24
 79.5205 381.396 79.5205 381.396 73.3066 355.257 c 128,-1,25
 67.0938 329.118 67.0938 329.118 67.0938 297.292 c 0,26,27
 67.0938 148.089 67.0938 148.089 98.2441 83.2246 c 128,-1,28
 129.396 18.3594 129.396 18.3594 200.645 18.3594 c 0,16,17
EndSplineSet
KernsSLIFO: 75 -46 0 0 15 -108 0 0 13 -388 0 0
EndChar
StartChar: c
Encoding: 99 99 68
Width: 332
GlyphClass: 2
Flags: W
Fore
171.874 476 m 0,0,1
 253.574 476 253.574 476 287.124 421.375 c 0,2,3
 293.201 413.229 293.201 413.229 293.374 408.719 c 0,4,5
 293.376 399.344 293.376 399.344 283.999 399.344 c 0,6,7
 279.355 399.942 279.355 399.942 278.318 400.846 c 128,-1,8
 277.281 401.748 277.281 401.748 274.374 405.75 c 0,9,10
 258.091 431.031 258.091 431.031 230.844 444.651 c 128,-1,11
 203.597 458.271 203.597 458.271 170.999 457.156 c 0,12,13
 132.703 457.156 132.703 457.156 106.46 424.112 c 128,-1,14
 80.2168 391.068 80.2168 391.068 69.4355 343.377 c 128,-1,15
 58.6553 295.685 58.6553 295.685 58.6553 238 c 0,16,17
 58.6553 210.92 58.6553 210.92 60.7725 185.37 c 128,-1,18
 62.8896 159.82 62.8896 159.82 70.2129 128.154 c 128,-1,19
 77.5371 96.4873 77.5371 96.4873 89.4619 73.5068 c 128,-1,20
 101.387 50.5264 101.387 50.5264 123.229 34.6846 c 128,-1,21
 145.072 18.8438 145.072 18.8438 173.999 18.8438 c 0,22,23
 239.813 16.5918 239.813 16.5918 274.374 70.25 c 0,24,25
 277.281 74.252 277.281 74.252 278.318 75.1543 c 128,-1,26
 279.355 76.0576 279.355 76.0576 283.999 76.6562 c 0,27,28
 293.376 76.6562 293.376 76.6562 293.374 67.2812 c 0,29,30
 293.201 62.7705 293.201 62.7705 287.124 54.625 c 0,31,32
 253.574 0 253.574 0 174.874 0 c 0,33,34
 107.901 0 107.901 0 74.9512 56.8516 c 128,-1,35
 42 113.703 42 113.703 42 238 c 0,36,37
 42 352.964 42 352.964 74.6641 414.482 c 128,-1,38
 107.329 476 107.329 476 171.874 476 c 0,0,1
EndSplineSet
KernsSLIFO: 75 -46 0 0 15 -82 0 0 14 -210 0 0 13 -386 0 0
EndChar
StartChar: d
Encoding: 100 100 69
Width: 384
GlyphClass: 2
Flags: W
Fore
183.524 -0.484375 m 0,0,1
 42 -0.484375 42 -0.484375 42 235.203 c 0,2,3
 42 353.898 42 353.898 75.709 412.941 c 128,-1,4
 109.419 471.984 109.419 471.984 185.494 471.984 c 0,5,6
 235.264 471.984 235.264 471.984 270.119 452.232 c 128,-1,7
 304.974 432.481 304.974 432.481 315.294 393.966 c 1,8,-1
 315.294 649.642 l 2,9,10
 315.294 659.017 315.294 659.017 324.669 659.017 c 128,-1,11
 334.044 659.017 334.044 659.017 334.044 649.642 c 2,12,-1
 334.044 235.203 l 2,13,14
 334.044 113.311 334.044 113.311 294.17 56.4131 c 128,-1,15
 254.296 -0.484375 254.296 -0.484375 183.524 -0.484375 c 0,0,1
182.649 18.3594 m 0,16,17
 253.897 18.3594 253.897 18.3594 285.049 83.2256 c 128,-1,18
 316.2 148.091 316.2 148.091 316.2 297.292 c 0,19,20
 316.2 329.118 316.2 329.118 309.986 355.257 c 128,-1,21
 303.773 381.396 303.773 381.396 289.644 404.201 c 128,-1,22
 275.514 427.007 275.514 427.007 248.873 439.792 c 128,-1,23
 222.233 452.578 222.233 452.578 184.994 452.578 c 0,24,25
 124.12 452.578 124.12 452.578 91.9824 397.43 c 128,-1,26
 59.8438 342.281 59.8438 342.281 59.8438 235.203 c 0,27,28
 59.8438 18.3594 59.8438 18.3594 182.649 18.3594 c 0,16,17
EndSplineSet
KernsSLIFO: 75 -52 0 0 15 -112 0 0 13 -394 0 0
EndChar
StartChar: e
Encoding: 101 101 70
Width: 382
GlyphClass: 2
Flags: W
Fore
185.252 480 m 0,0,1
 258.683 480 258.683 480 298.326 416.298 c 128,-1,2
 337.971 352.597 337.971 352.597 337.971 241.656 c 0,3,4
 337.971 232.281 337.971 232.281 328.595 232.281 c 2,5,-1
 58.0947 232.281 l 1,6,7
 58.0947 135.704 58.0947 135.704 95.3984 77.2734 c 128,-1,8
 132.702 18.8438 132.702 18.8438 204.377 18.8438 c 0,9,10
 238.027 17.6924 238.027 17.6924 269.977 31.6855 c 128,-1,11
 301.925 45.6787 301.925 45.6787 317.752 70.25 c 0,12,13
 320.658 74.252 320.658 74.252 321.695 75.1543 c 128,-1,14
 322.732 76.0576 322.732 76.0576 327.377 76.6562 c 0,15,16
 336.752 76.6562 336.752 76.6562 336.752 67.2812 c 0,17,18
 336.579 62.7725 336.579 62.7725 330.502 54.625 c 0,19,20
 296.95 0 296.95 0 205.252 0 c 0,21,22
 134.026 0 134.026 0 87.7012 59.291 c 128,-1,23
 41.376 118.582 41.376 118.582 41.377 238 c 0,24,25
 41.377 350.531 41.377 350.531 80.3672 415.266 c 128,-1,26
 119.358 480 119.358 480 185.252 480 c 0,0,1
188.438 461.25 m 0,27,28
 153.023 460.765 153.023 460.765 126.814 439.034 c 128,-1,29
 100.604 417.305 100.604 417.305 87.0273 382.062 c 128,-1,30
 73.4492 346.819 73.4492 346.819 66.9453 315.434 c 128,-1,31
 60.4404 284.048 60.4404 284.048 58.2207 251.031 c 1,32,-1
 320.502 251.031 l 1,33,34
 320.502 282.567 320.502 282.567 314 316.066 c 128,-1,35
 307.497 349.565 307.497 349.565 293.534 383.672 c 128,-1,36
 279.571 417.778 279.571 417.778 252.223 439.514 c 128,-1,37
 224.873 461.25 224.873 461.25 188.438 461.25 c 0,27,28
EndSplineSet
KernsSLIFO: 75 -52 0 0 15 -86 0 0 13 -390 0 0
EndChar
StartChar: f
Encoding: 102 102 71
Width: 302
GlyphClass: 2
Flags: W
Fore
194.125 663.75 m 0,0,1
 235.358 663.75 235.358 663.75 259.375 646.125 c 1,2,3
 265.493 637.923 265.493 637.923 265.625 634.469 c 0,4,5
 265.627 625.094 265.627 625.094 256.25 625.094 c 0,6,7
 251.605 625.692 251.605 625.692 250.569 626.595 c 128,-1,8
 249.533 627.497 249.533 627.497 246.625 631.5 c 1,9,10
 228.303 644.906 228.303 644.906 193.25 644.906 c 0,11,12
 176.384 644.906 176.384 644.906 164.111 639.789 c 128,-1,13
 151.838 634.673 151.838 634.673 144.158 622.519 c 128,-1,14
 136.479 610.365 136.479 610.365 131.852 597.806 c 128,-1,15
 127.226 585.247 127.226 585.247 125.146 562.509 c 128,-1,16
 123.065 539.771 123.065 539.771 122.533 521.863 c 128,-1,17
 122 503.956 122 503.956 122 473.25 c 0,18,-1
 122 453.781 l 1,19,-1
 254.281 453.781 l 2,20,21
 263.656 453.781 263.656 453.781 263.656 444.406 c 128,-1,22
 263.656 435.031 263.656 435.031 254.281 435.031 c 2,23,-1
 122 435.031 l 1,24,-1
 122 7.96875 l 2,25,26
 122 -1.40625 122 -1.40625 112.625 -1.40625 c 128,-1,27
 103.252 -1.40625 103.252 -1.40625 103.25 7.96875 c 2,28,-1
 105.031 435.031 l 1,29,-1
 49.5938 435.031 l 2,30,31
 40.2188 435.031 40.2188 435.031 40.2188 444.406 c 128,-1,32
 40.2188 453.781 40.2188 453.781 49.5938 453.781 c 2,33,-1
 105.125 453.781 l 1,34,-1
 105.219 479 l 2,35,36
 105.219 580.844 105.219 580.844 122.506 622.297 c 128,-1,37
 139.793 663.75 139.793 663.75 194.125 663.75 c 0,0,1
EndSplineSet
KernsSLIFO: 75 -42 0 0 15 -218 0 0 14 -118 0 0 13 -520 0 0
EndChar
StartChar: g
Encoding: 103 103 72
Width: 384
GlyphClass: 2
Flags: W
Fore
189.202 476.938 m 0,0,1
 267.722 476.938 267.722 476.938 303.023 423.858 c 128,-1,2
 338.326 370.778 338.326 370.778 338.326 239.25 c 2,3,-1
 338.326 46.25 l 2,4,5
 338.324 -184.438 338.324 -184.438 195.889 -184.438 c 0,6,7
 160.618 -184.438 160.618 -184.438 123.862 -168.159 c 128,-1,8
 87.1064 -151.881 87.1064 -151.881 68.6387 -121.812 c 0,9,10
 62.5615 -113.668 62.5615 -113.668 62.3887 -109.156 c 0,11,12
 62.3867 -99.7812 62.3867 -99.7812 71.7637 -99.7812 c 0,13,14
 76.4092 -100.38 76.4092 -100.38 77.4453 -101.282 c 128,-1,15
 78.4814 -102.185 78.4814 -102.185 81.3887 -106.188 c 0,16,17
 97.8652 -131.77 97.8652 -131.77 131.189 -149.233 c 128,-1,18
 164.514 -166.698 164.514 -166.698 196.764 -165.594 c 0,19,20
 320.485 -165.594 320.485 -165.594 320.482 46.25 c 2,21,-1
 319.92 67.75 l 1,22,23
 279.311 -0.53125 279.311 -0.53125 187.232 -0.53125 c 0,24,25
 115.963 -0.53125 115.963 -0.53125 79.2227 60.7646 c 128,-1,26
 42.4824 122.061 42.4824 122.061 42.4824 239.25 c 0,27,28
 42.4824 476.938 42.4824 476.938 189.202 476.938 c 0,0,1
190.107 458.094 m 0,29,30
 122.545 458.094 122.545 458.094 91.4355 403.433 c 128,-1,31
 60.3271 348.771 60.3271 348.771 60.3262 239.25 c 0,32,33
 60.3262 130.107 60.3262 130.107 90.6865 74.4912 c 128,-1,34
 121.047 18.875 121.047 18.875 187.732 18.875 c 0,35,36
 245.134 18.875 245.134 18.875 282.809 54.042 c 128,-1,37
 320.482 89.209 320.482 89.209 320.482 131.25 c 0,38,39
 320.482 212.306 320.482 212.306 317 265.342 c 128,-1,40
 313.518 318.378 313.518 318.378 305.412 357.925 c 128,-1,41
 297.306 397.472 297.306 397.472 281.861 418.235 c 128,-1,42
 266.418 439 266.418 439 244.713 448.547 c 128,-1,43
 223.008 458.094 223.008 458.094 190.107 458.094 c 0,29,30
EndSplineSet
KernsSLIFO: 75 62 0 0 15 -88 0 0 13 -392 0 0
EndChar
StartChar: h
Encoding: 104 104 73
Width: 390
GlyphClass: 2
Flags: W
Fore
61.5312 661.862 m 128,-1,1
 70.9043 661.862 70.9043 661.862 70.9062 652.487 c 2,2,-1
 70.9062 393.269 l 1,3,4
 86.1777 436.631 86.1777 436.631 117.452 455.665 c 128,-1,5
 148.726 474.7 148.726 474.7 197.762 474.7 c 0,6,7
 266.541 474.7 266.541 474.7 305.62 414.06 c 128,-1,8
 344.699 353.419 344.699 353.419 344.7 236.312 c 2,9,-1
 344.7 9.7998 l 2,10,11
 344.696 0.424805 344.696 0.424805 335.324 0.424805 c 128,-1,12
 325.948 0.424805 325.948 0.424805 325.95 9.7998 c 0,13,14
 325.95 236.469 325.95 236.469 326.855 236.469 c 1,15,16
 326.855 341.477 326.855 341.477 293.493 398.666 c 128,-1,17
 260.131 455.856 260.131 455.856 196.887 455.856 c 0,18,19
 134.069 455.856 134.069 455.856 102.034 408.854 c 128,-1,20
 70 361.851 70 361.851 70 258.612 c 0,21,22
 70 9.1748 70 9.1748 70.9062 9.1748 c 1,23,24
 70.9062 -0.200195 70.9062 -0.200195 61.5312 -0.200195 c 128,-1,25
 52.1543 -0.200195 52.1543 -0.200195 52.1562 9.1748 c 2,26,-1
 52.1562 652.487 l 2,27,0
 52.1562 661.862 52.1562 661.862 61.5312 661.862 c 128,-1,1
EndSplineSet
KernsSLIFO: 75 -50 0 0 15 -84 0 0 13 -388 0 0
EndChar
StartChar: i
Encoding: 105 105 74
Width: 116
GlyphClass: 2
Flags: W
Fore
61.7217 475.819 m 128,-1,1
 71.0967 475.819 71.0967 475.819 71.0967 466.444 c 2,2,-1
 71.0967 9.15625 l 2,3,4
 71.0967 -0.21875 71.0967 -0.21875 61.7217 -0.21875 c 128,-1,5
 52.3467 -0.21875 52.3467 -0.21875 52.3467 9.15625 c 2,6,-1
 52.3467 466.444 l 2,7,0
 52.3467 475.819 52.3467 475.819 61.7217 475.819 c 128,-1,1
71.0967 659.249 m 128,-1,9
 71.0967 649.874 71.0967 649.874 61.7217 649.874 c 128,-1,10
 52.3467 649.874 52.3467 649.874 52.3467 659.249 c 128,-1,11
 52.3467 668.624 52.3467 668.624 61.7217 668.624 c 128,-1,8
 71.0967 668.624 71.0967 668.624 71.0967 659.249 c 128,-1,9
EndSplineSet
KernsSLIFO: 75 -52 0 0 15 -88 0 0 13 -392 0 0
EndChar
StartChar: j
Encoding: 106 106 75
Width: 182
GlyphClass: 2
Flags: W
Fore
115.187 475.812 m 128,-1,1
 124.56 475.812 124.56 475.812 124.562 466.438 c 2,2,-1
 122.593 3.40625 l 2,3,4
 122.593 -98.4395 122.593 -98.4395 105.306 -139.892 c 128,-1,5
 88.0195 -181.344 88.0195 -181.344 33.6865 -181.344 c 0,6,7
 -7.54883 -181.344 -7.54883 -181.344 -31.5635 -163.719 c 1,8,9
 -37.6816 -155.518 -37.6816 -155.518 -37.8135 -152.062 c 0,10,11
 -37.8154 -142.688 -37.8154 -142.688 -28.4385 -142.688 c 0,12,13
 -23.793 -143.286 -23.793 -143.286 -22.7568 -144.188 c 128,-1,14
 -21.7207 -145.091 -21.7207 -145.091 -18.8135 -149.094 c 1,15,16
 -0.489258 -162.5 -0.489258 -162.5 34.5615 -162.5 c 0,17,18
 51.4277 -162.5 51.4277 -162.5 63.7002 -157.383 c 128,-1,19
 75.9736 -152.267 75.9736 -152.267 83.6533 -140.113 c 128,-1,20
 91.334 -127.959 91.334 -127.959 95.96 -115.4 c 128,-1,21
 100.585 -102.841 100.585 -102.841 102.665 -80.1035 c 128,-1,22
 104.746 -57.3662 104.746 -57.3662 105.278 -39.457 c 128,-1,23
 105.812 -21.5479 105.812 -21.5479 105.812 9.15625 c 0,24,-1
 105.812 466.438 l 2,25,0
 105.812 475.812 105.812 475.812 115.187 475.812 c 128,-1,1
124.562 659.249 m 128,-1,27
 124.562 649.874 124.562 649.874 115.188 649.874 c 128,-1,28
 105.812 649.874 105.812 649.874 105.812 659.249 c 128,-1,29
 105.812 668.624 105.812 668.624 115.188 668.624 c 128,-1,26
 124.562 668.624 124.562 668.624 124.562 659.249 c 128,-1,27
EndSplineSet
KernsSLIFO: 75 64 0 0 28 -40 0 0 15 -100 0 0 13 -404 0 0
EndChar
StartChar: k
Encoding: 107 107 76
Width: 348
GlyphClass: 2
Flags: W
Fore
47.624 669.5 m 128,-1,1
 56.998 669.5 56.998 669.5 57 660.125 c 2,2,-1
 57 260.438 l 1,3,-1
 302.062 496 l 2,4,5
 308.813 502.512 308.813 502.512 315.312 495.781 c 128,-1,6
 321.824 489.034 321.824 489.034 315.094 482.531 c 2,7,-1
 126.281 301.031 l 1,8,-1
 334.938 15.1875 l 2,9,10
 340.438 7.61426 340.438 7.61426 332.844 2.09375 c 128,-1,11
 325.271 -3.4082 325.271 -3.4082 319.75 4.1875 c 2,12,-1
 112.624 287.906 l 1,13,-1
 57 234.438 l 1,14,-1
 57 9.375 l 2,15,16
 57 0 57 0 47.624 0 c 128,-1,17
 38.248 0 38.248 0 38.25 9.375 c 2,18,-1
 38.25 660.125 l 2,19,0
 38.25 669.5 38.25 669.5 47.624 669.5 c 128,-1,1
EndSplineSet
KernsSLIFO: 15 -74 0 0 14 -72 0 0 13 -378 0 0
EndChar
StartChar: l
Encoding: 108 108 77
Width: 114
GlyphClass: 2
Flags: W
Fore
61.1904 654.572 m 128,-1,1
 70.5654 654.572 70.5654 654.572 70.5654 645.197 c 2,2,-1
 70.5654 11.4375 l 2,3,4
 70.5654 2.0625 70.5654 2.0625 61.1904 2.0625 c 128,-1,5
 51.8154 2.0625 51.8154 2.0625 51.8154 11.4375 c 2,6,-1
 51.8154 645.197 l 2,7,0
 51.8154 654.572 51.8154 654.572 61.1904 654.572 c 128,-1,1
EndSplineSet
KernsSLIFO: 75 -52 0 0 15 -88 0 0 13 -392 0 0
EndChar
StartChar: m
Encoding: 109 109 78
Width: 540
GlyphClass: 2
Flags: W
Fore
152.108 477 m 4,0,1
 197.041 477 197.041 477 229.809 448.086 c 132,-1,2
 262.577 419.171 262.577 419.171 274.858 367.25 c 5,3,4
 295.77 477 295.77 477 387.201 477 c 4,5,6
 452.821 477 452.821 477 481.48 418.038 c 132,-1,7
 510.14 359.075 510.14 359.075 510.14 236.312 c 6,8,-1
 510.14 10 l 6,9,10
 510.138 0.625 510.138 0.625 500.765 0.625 c 132,-1,11
 491.39 0.625 491.39 0.625 491.39 10 c 6,12,-1
 492.295 236.469 l 6,13,14
 492.295 342.672 492.295 342.672 465.677 400.414 c 132,-1,15
 439.059 458.156 439.059 458.156 386.327 458.156 c 4,16,17
 350.654 458.156 350.654 458.156 326.928 431.715 c 132,-1,18
 303.201 405.274 303.201 405.274 293.92 367.393 c 132,-1,19
 284.64 329.511 284.64 329.511 284.64 282.312 c 6,20,-1
 285.545 155.375 l 6,21,22
 285.545 146 285.545 146 276.17 146 c 132,-1,23
 266.795 146 266.795 146 266.795 155.375 c 6,24,-1
 266.201 282.469 l 6,25,26
 266.201 327.46 266.201 327.46 255.776 365.298 c 132,-1,27
 245.352 403.137 245.352 403.137 218.361 430.646 c 132,-1,28
 191.371 458.156 191.371 458.156 151.233 458.156 c 4,29,30
 100.304 458.156 100.304 458.156 76.9248 402.96 c 132,-1,31
 53.5459 347.763 53.5459 347.763 53.5449 236.312 c 6,32,-1
 53.998 122.844 l 5,33,-1
 54.4512 9.375 l 6,34,35
 54.4512 0 54.4512 0 45.0771 0 c 132,-1,36
 35.7031 0 35.7031 0 35.7012 9.375 c 6,37,-1
 35.7012 236.312 l 6,38,39
 35.7021 284.097 35.7021 284.097 38 317.563 c 132,-1,40
 40.2979 351.031 40.2979 351.031 47.4297 383.199 c 132,-1,41
 54.5615 415.367 54.5615 415.367 67.1514 434.57 c 132,-1,42
 79.7412 453.773 79.7412 453.773 100.99 465.387 c 132,-1,43
 122.239 477 122.239 477 152.108 477 c 4,0,1
EndSplineSet
KernsSLIFO: 75 -52 0 0 15 -86 0 0 13 -390 0 0
EndChar
StartChar: n
Encoding: 110 110 79
Width: 378
GlyphClass: 2
Flags: W
Fore
191.068 467.013 m 4,0,1
 260.503 467.013 260.503 467.013 299.248 409.802 c 132,-1,2
 337.994 352.591 337.994 352.591 337.994 236.325 c 6,3,-1
 337.994 10 l 6,4,5
 337.994 0.625 337.994 0.625 328.619 0.625 c 132,-1,6
 319.207 0.625403 319.207 0.625403 319.244 10 c 6,7,-1
 320.149 236.456 l 6,8,9
 320.563 339.859 320.563 339.859 287.066 394.353 c 4,10,11
 253.982 448.169 253.982 448.169 190.193 448.169 c 4,12,13
 65.654 448.169 65.654 448.169 66.5 236.325 c 6,14,-1
 67.4062 9.38281 l 6,15,16
 67.4437 0.00775969 67.4437 0.00775969 58.0312 0.0078125 c 132,-1,17
 48.6562 0.0078125 48.6562 0.0078125 48.6562 9.38281 c 6,18,-1
 48.6562 236.325 l 6,19,20
 48.6562 467.013 48.6562 467.013 191.068 467.013 c 4,0,1
EndSplineSet
KernsSLIFO: 75 -50 0 0 15 -84 0 0 13 -388 0 0
EndChar
StartChar: o
Encoding: 111 111 80
Width: 394
GlyphClass: 2
Flags: W
Fore
200.146 473.438 m 0,0,1
 275.525 473.438 275.525 473.438 316.397 410.69 c 128,-1,2
 357.271 347.942 357.271 347.942 357.271 237.75 c 0,3,4
 357.271 122.383 357.271 122.383 316.695 61.6787 c 128,-1,5
 276.12 0.974609 276.12 0.974609 198.177 0.974609 c 0,6,7
 125.461 0.974609 125.461 0.974609 84.4443 61.8633 c 128,-1,8
 43.4268 122.752 43.4268 122.752 43.4268 237.75 c 0,9,10
 43.4268 358.76 43.4268 358.76 85.9658 416.099 c 128,-1,11
 128.504 473.438 128.504 473.438 200.146 473.438 c 0,0,1
201.032 454.596 m 0,12,13
 132.103 454.596 132.103 454.596 96.6865 399.738 c 128,-1,14
 61.2705 344.881 61.2705 344.881 61.2705 237.75 c 0,15,16
 61.2705 131.258 61.2705 131.258 95.9307 75.8125 c 128,-1,17
 130.592 20.3672 130.592 20.3672 198.677 20.3672 c 0,18,19
 261.474 20.3672 261.474 20.3672 300.45 76.8633 c 128,-1,20
 339.427 133.358 339.427 133.358 339.427 237.75 c 0,21,22
 339.427 343.751 339.427 343.751 301.799 399.174 c 128,-1,23
 264.171 454.596 264.171 454.596 201.032 454.596 c 0,12,13
EndSplineSet
KernsSLIFO: 75 -46 0 0 15 -106 0 0 13 -388 0 0
EndChar
StartChar: p
Encoding: 112 112 81
Width: 380
GlyphClass: 2
Flags: W
Fore
199.475 473.438 m 0,0,1
 341 473.438 341 473.438 341 237.75 c 0,2,3
 341 119.055 341 119.055 307.291 60.0117 c 128,-1,4
 273.581 0.96875 273.581 0.96875 197.506 0.96875 c 0,5,6
 147.735 0.96875 147.735 0.96875 112.881 20.7207 c 128,-1,7
 78.0254 40.4717 78.0254 40.4717 67.7051 78.9873 c 1,8,-1
 67.7051 -176.688 l 2,9,10
 67.7051 -186.063 67.7051 -186.063 58.3301 -186.063 c 128,-1,11
 48.9551 -186.063 48.9551 -186.063 48.9551 -176.688 c 2,12,-1
 48.9551 237.75 l 2,13,14
 48.9551 359.643 48.9551 359.643 88.8291 416.54 c 128,-1,15
 128.703 473.438 128.703 473.438 199.475 473.438 c 0,0,1
200.35 454.594 m 0,16,17
 129.102 454.594 129.102 454.594 97.9512 389.729 c 128,-1,18
 66.7998 324.863 66.7998 324.863 66.7998 175.662 c 0,19,20
 66.7998 143.836 66.7998 143.836 73.0137 117.697 c 128,-1,21
 79.2266 91.5576 79.2266 91.5576 93.3555 68.752 c 128,-1,22
 107.485 45.9473 107.485 45.9473 134.125 33.1611 c 128,-1,23
 160.766 20.375 160.766 20.375 198.006 20.375 c 0,24,25
 258.879 20.375 258.879 20.375 291.018 75.5234 c 128,-1,26
 323.155 130.673 323.155 130.673 323.155 237.75 c 0,27,28
 323.155 454.594 323.155 454.594 200.35 454.594 c 0,16,17
EndSplineSet
KernsSLIFO: 75 -46 0 0 15 -108 0 0 13 -388 0 0
EndChar
StartChar: q
Encoding: 113 113 82
Width: 404
GlyphClass: 2
Flags: W
Fore
183.682 473.438 m 0,0,1
 254.453 473.438 254.453 473.438 294.327 416.54 c 128,-1,2
 334.2 359.643 334.2 359.643 334.2 237.75 c 2,3,-1
 334.2 -176.688 l 2,4,5
 334.2 -186.063 334.2 -186.063 324.825 -186.063 c 128,-1,6
 315.45 -186.063 315.45 -186.063 315.45 -176.688 c 2,7,-1
 315.45 78.9873 l 1,8,9
 305.131 40.4727 305.131 40.4727 270.275 20.7207 c 128,-1,10
 235.42 0.96875 235.42 0.96875 185.65 0.96875 c 0,11,12
 109.575 0.96875 109.575 0.96875 75.8662 60.0117 c 128,-1,13
 42.1562 119.055 42.1562 119.055 42.1562 237.75 c 0,14,15
 42.1562 473.438 42.1562 473.438 183.682 473.438 c 0,0,1
182.807 454.594 m 0,16,17
 60 454.594 60 454.594 60 237.75 c 0,18,19
 60 130.672 60 130.672 92.1377 75.5234 c 128,-1,20
 124.276 20.375 124.276 20.375 185.15 20.375 c 0,21,22
 222.39 20.375 222.39 20.375 249.03 33.1611 c 128,-1,23
 275.67 45.9463 275.67 45.9463 289.8 68.752 c 128,-1,24
 303.93 91.5586 303.93 91.5586 310.144 117.696 c 128,-1,25
 316.356 143.835 316.356 143.835 316.356 175.662 c 0,26,27
 316.356 324.864 316.356 324.864 285.206 389.729 c 128,-1,28
 254.055 454.594 254.055 454.594 182.807 454.594 c 0,16,17
EndSplineSet
KernsSLIFO: 75 66 0 0 28 -50 0 0 27 -40 0 0 15 -108 0 0 13 -412 0 0
EndChar
StartChar: r
Encoding: 114 114 83
Width: 362
GlyphClass: 2
Flags: W
Fore
191.438 476 m 0,0,1
 226.709 476 226.709 476 263.464 459.722 c 128,-1,2
 300.22 443.443 300.22 443.443 318.688 413.375 c 0,3,4
 324.766 405.23 324.766 405.23 324.938 400.719 c 0,5,6
 324.94 391.344 324.94 391.344 315.563 391.344 c 0,7,8
 310.919 391.942 310.919 391.942 309.882 392.846 c 128,-1,9
 308.845 393.748 308.845 393.748 305.938 397.75 c 0,10,11
 289.462 423.331 289.462 423.331 256.138 440.796 c 128,-1,12
 222.813 458.26 222.813 458.26 190.563 457.156 c 0,13,14
 66.8408 457.156 66.8408 457.156 66.8438 245.312 c 2,15,-1
 67.75 18.375 l 2,16,17
 67.75 9 67.75 9 58.375 9 c 128,-1,18
 49 9 49 9 49 18.375 c 2,19,-1
 49 245.312 l 2,20,21
 49.002 476 49.002 476 191.438 476 c 0,0,1
EndSplineSet
KernsSLIFO: 75 -42 0 0 15 -338 0 0 13 -640 0 0
EndChar
StartChar: s
Encoding: 115 115 84
Width: 326
GlyphClass: 2
Flags: W
Fore
156.671 476 m 0,0,1
 190.768 476 190.768 476 223.459 459.969 c 128,-1,2
 256.15 443.938 256.15 443.938 274.921 413.375 c 0,3,4
 280.999 405.229 280.999 405.229 281.171 400.719 c 0,5,6
 281.173 391.344 281.173 391.344 271.796 391.344 c 0,7,8
 267.151 391.942 267.151 391.942 266.115 392.846 c 128,-1,9
 265.079 393.748 265.079 393.748 262.171 397.75 c 0,10,11
 245.137 424.197 245.137 424.197 216.196 441.215 c 128,-1,12
 187.257 458.232 187.257 458.232 155.796 457.156 c 0,13,14
 103.229 457.156 103.229 457.156 70.1533 429.926 c 128,-1,15
 37.0781 402.695 37.0781 402.695 37.0781 356.312 c 0,16,17
 37.0781 302.225 37.0781 302.225 63.959 278.175 c 128,-1,18
 90.8398 254.125 90.8398 254.125 158.359 254.125 c 0,19,20
 220.499 254.125 220.499 254.125 258.835 222.857 c 128,-1,21
 297.171 191.589 297.171 191.589 297.171 127.688 c 0,22,23
 297.171 0 297.171 0 153.734 0 c 0,24,25
 118.464 0 118.464 0 81.708 16.2783 c 128,-1,26
 44.9521 32.5566 44.9521 32.5566 26.4844 62.625 c 0,27,28
 20.4072 70.7705 20.4072 70.7705 20.2344 75.2812 c 0,29,30
 20.2324 84.6562 20.2324 84.6562 29.6094 84.6562 c 0,31,32
 34.2539 84.0576 34.2539 84.0576 35.291 83.1543 c 128,-1,33
 36.3281 82.252 36.3281 82.252 39.2344 78.25 c 0,34,35
 55.7109 52.668 55.7109 52.668 89.0352 35.2041 c 128,-1,36
 122.359 17.7393 122.359 17.7393 154.609 18.8438 c 0,37,38
 215.054 18.8438 215.054 18.8438 247.19 47.3359 c 128,-1,39
 279.328 75.8281 279.328 75.8281 279.328 127.688 c 128,-1,40
 279.328 179.445 279.328 179.445 245.808 206.16 c 128,-1,41
 212.286 232.875 212.286 232.875 157.046 232.875 c 0,42,43
 88.6299 232.875 88.6299 232.875 53.9326 261.556 c 128,-1,44
 19.2344 290.235 19.2344 290.235 19.2344 356.312 c 0,45,46
 19.2344 416.167 19.2344 416.167 56.5547 446.083 c 128,-1,47
 93.875 476 93.875 476 156.671 476 c 0,0,1
EndSplineSet
KernsSLIFO: 75 -48 0 0 15 -88 0 0 13 -386 0 0
EndChar
StartChar: t
Encoding: 116 116 85
Width: 258
GlyphClass: 2
Flags: W
Fore
192.125 -0.436523 m 0,0,1
 137.792 -0.436523 137.792 -0.436523 120.505 41.0156 c 128,-1,2
 103.219 82.4678 103.219 82.4678 103.219 184.313 c 2,3,-1
 103.125 453.532 l 1,4,-1
 24.5938 453.532 l 2,5,6
 15.2188 453.532 15.2188 453.532 15.2188 462.907 c 128,-1,7
 15.2188 472.282 15.2188 472.282 24.5938 472.282 c 2,8,-1
 103.031 472.282 l 1,9,-1
 101.25 655.345 l 2,10,11
 101.252 664.72 101.252 664.72 110.625 664.72 c 128,-1,12
 120 664.72 120 664.72 120 655.345 c 2,13,-1
 120 472.282 l 1,14,-1
 233.281 472.282 l 2,15,16
 242.656 472.282 242.656 472.282 242.656 462.907 c 128,-1,17
 242.656 453.532 242.656 453.532 233.281 453.532 c 2,18,-1
 120 453.532 l 1,19,-1
 120 190.188 l 2,20,21
 120 159.359 120 159.359 120.532 141.45 c 128,-1,22
 121.065 123.541 121.065 123.541 123.146 100.805 c 128,-1,23
 125.227 78.0674 125.227 78.0674 129.853 65.5078 c 128,-1,24
 134.478 52.9482 134.478 52.9482 142.157 40.7949 c 128,-1,25
 149.838 28.6416 149.838 28.6416 162.11 23.5244 c 128,-1,26
 174.384 18.4072 174.384 18.4072 191.25 18.4072 c 0,27,28
 226.303 18.4072 226.303 18.4072 244.625 31.8135 c 1,29,30
 247.532 35.8154 247.532 35.8154 248.569 36.7178 c 128,-1,31
 249.606 37.6211 249.606 37.6211 254.25 38.2197 c 0,32,33
 263.627 38.2197 263.627 38.2197 263.625 28.8447 c 0,34,35
 263.493 25.3887 263.493 25.3887 257.375 17.1885 c 1,36,37
 233.358 -0.436523 233.358 -0.436523 192.125 -0.436523 c 0,0,1
EndSplineSet
KernsSLIFO: 75 -40 0 0 15 -76 0 0 14 -116 0 0 13 -380 0 0
EndChar
StartChar: u
Encoding: 117 117 86
Width: 388
GlyphClass: 2
Flags: W
Fore
191.068 2.9873 m 0,0,1
 260.503 2.9873 260.503 2.9873 299.248 60.1982 c 128,-1,2
 337.994 117.409 337.994 117.409 337.994 233.675 c 2,3,-1
 337.994 460 l 2,4,5
 337.994 469.375 337.994 469.375 328.619 469.375 c 128,-1,6
 319.207 469.375 319.207 469.375 319.244 460 c 2,7,-1
 320.149 233.544 l 2,8,9
 320.562 130.141 320.562 130.141 287.066 75.6475 c 0,10,11
 253.982 21.8311 253.982 21.8311 190.193 21.8311 c 0,12,13
 65.6543 21.8311 65.6543 21.8311 66.5 233.675 c 2,14,-1
 67.4062 460.617 l 2,15,16
 67.4434 469.992 67.4434 469.992 58.0312 469.992 c 128,-1,17
 48.6562 469.992 48.6562 469.992 48.6562 460.617 c 2,18,-1
 48.6562 233.675 l 2,19,20
 48.6562 2.9873 48.6562 2.9873 191.068 2.9873 c 0,0,1
EndSplineSet
KernsSLIFO: 75 -50 0 0 15 -108 0 0 13 -392 0 0
EndChar
StartChar: v
Encoding: 118 118 87
Width: 368
GlyphClass: 2
Flags: W
Fore
22.1035 484 m 0,0,1
 27.6904 484.145 27.6904 484.145 30.4795 479.312 c 1,2,3
 30.4795 388.967 30.4795 388.967 60.8838 277.06 c 128,-1,4
 91.2881 165.152 91.2881 165.152 126.741 93.1074 c 128,-1,5
 162.194 21.0625 162.194 21.0625 180.104 21.0625 c 0,6,7
 200.302 21.0625 200.302 21.0625 236.069 94.5762 c 128,-1,8
 271.839 168.09 271.839 168.09 301.269 279.504 c 128,-1,9
 330.698 390.919 330.698 390.919 330.698 479.312 c 1,10,11
 335.39 487.439 335.39 487.439 343.511 482.75 c 128,-1,12
 351.638 478.058 351.638 478.058 346.948 469.938 c 1,13,14
 346.948 379.991 346.948 379.991 318.237 266.671 c 128,-1,15
 289.528 153.35 289.528 153.35 249.948 75.0967 c 128,-1,16
 210.37 -3.15625 210.37 -3.15625 180.823 -3.15625 c 0,17,18
 153.101 -3.15625 153.101 -3.15625 113.474 74.0898 c 128,-1,19
 73.8467 151.336 73.8467 151.336 44.0537 265.143 c 128,-1,20
 14.2607 378.948 14.2607 378.948 14.2607 469.938 c 1,21,22
 9.56445 478.07 9.56445 478.07 17.667 482.75 c 0,23,24
 19.7266 483.938 19.7266 483.938 22.1035 484 c 0,0,1
EndSplineSet
KernsSLIFO: 15 -192 0 0 13 -452 0 0
EndChar
StartChar: w
Encoding: 119 119 88
Width: 538
GlyphClass: 2
Flags: W
Fore
151.108 -2 m 0,0,1
 196.041 -2 196.041 -2 228.809 26.9141 c 128,-1,2
 261.577 55.8291 261.577 55.8291 273.858 107.75 c 1,3,4
 294.77 -2 294.77 -2 386.201 -2 c 0,5,6
 451.821 -2 451.821 -2 480.48 56.9619 c 128,-1,7
 509.14 115.925 509.14 115.925 509.14 238.688 c 2,8,-1
 509.14 465 l 2,9,10
 509.138 474.375 509.138 474.375 499.765 474.375 c 128,-1,11
 490.39 474.375 490.39 474.375 490.39 465 c 2,12,-1
 491.295 238.531 l 2,13,14
 491.295 132.328 491.295 132.328 464.677 74.5859 c 128,-1,15
 438.059 16.8438 438.059 16.8438 385.327 16.8438 c 0,16,17
 349.654 16.8438 349.654 16.8438 325.928 43.2852 c 128,-1,18
 302.201 69.7256 302.201 69.7256 292.92 107.607 c 128,-1,19
 283.64 145.489 283.64 145.489 283.64 192.688 c 2,20,-1
 284.545 319.625 l 2,21,22
 284.545 329 284.545 329 275.17 329 c 128,-1,23
 265.795 329 265.795 329 265.795 319.625 c 2,24,-1
 265.201 192.531 l 2,25,26
 265.201 147.54 265.201 147.54 254.776 109.702 c 128,-1,27
 244.352 71.8633 244.352 71.8633 217.361 44.3535 c 128,-1,28
 190.371 16.8438 190.371 16.8438 150.233 16.8438 c 0,29,30
 99.3037 16.8438 99.3037 16.8438 75.9248 72.04 c 128,-1,31
 52.5459 127.237 52.5459 127.237 52.5449 238.688 c 2,32,-1
 52.998 352.156 l 1,33,-1
 53.4512 465.625 l 2,34,35
 53.4512 475 53.4512 475 44.0771 475 c 128,-1,36
 34.7031 475 34.7031 475 34.7012 465.625 c 2,37,-1
 34.7012 238.688 l 2,38,39
 34.7021 190.903 34.7021 190.903 37 157.437 c 128,-1,40
 39.2979 123.969 39.2979 123.969 46.4297 91.8008 c 128,-1,41
 53.5615 59.6328 53.5615 59.6328 66.1514 40.4297 c 128,-1,42
 78.7412 21.2266 78.7412 21.2266 99.9902 9.61328 c 128,-1,43
 121.239 -2 121.239 -2 151.108 -2 c 0,0,1
EndSplineSet
KernsSLIFO: 75 -52 0 0 15 -100 0 0 13 -392 0 0
EndChar
StartChar: x
Encoding: 120 120 89
Width: 408
GlyphClass: 2
Flags: W
Fore
33 475.616 m 0,0,1
 38.5859 475.761 38.5859 475.761 41.375 470.929 c 2,2,-1
 180 257.679 l 1,3,-1
 323.594 470.929 l 2,4,5
 328.285 479.057 328.285 479.057 336.406 474.366 c 128,-1,6
 344.531 469.677 344.531 469.677 339.844 461.554 c 2,7,-1
 191.93 238.13 l 1,8,-1
 339.844 15.3037 l 2,9,10
 344.531 7.18262 344.531 7.18262 336.406 2.49121 c 128,-1,11
 328.285 -2.19629 328.285 -2.19629 323.594 5.92871 c 2,12,-1
 180 220.179 l 1,13,-1
 41.375 5.92871 l 2,14,15
 36.6836 -2.19727 36.6836 -2.19727 28.5625 2.49121 c 128,-1,16
 20.4609 7.16992 20.4609 7.16992 25.1562 15.3037 c 2,17,-1
 168.963 238.431 l 1,18,-1
 25.1562 461.554 l 2,19,20
 20.4609 469.689 20.4609 469.689 28.5625 474.366 c 0,21,22
 30.6211 475.555 30.6211 475.555 33 475.616 c 0,0,1
EndSplineSet
KernsSLIFO: 75 -44 0 0 15 -80 0 0 14 -88 0 0 13 -384 0 0
EndChar
StartChar: y
Encoding: 121 121 90
Width: 376
GlyphClass: 2
Flags: W
Fore
333.031 477 m 128,-1,1
 342.406 477 342.406 477 342.406 467.625 c 2,2,-1
 342.406 52.75 l 2,3,4
 342.404 -57.623 342.404 -57.623 301.322 -121.28 c 128,-1,5
 260.24 -184.938 260.24 -184.938 184.967 -184.938 c 0,6,7
 149.436 -184.938 149.436 -184.938 111.783 -168.613 c 128,-1,8
 74.1289 -152.289 74.1289 -152.289 55.7168 -122.312 c 0,9,10
 49.6406 -114.167 49.6406 -114.167 49.4668 -109.656 c 0,11,12
 49.4668 -100.281 49.4668 -100.281 58.8438 -100.281 c 0,13,14
 63.4883 -100.88 63.4883 -100.88 64.5254 -101.782 c 128,-1,15
 65.5605 -102.685 65.5605 -102.685 68.4668 -106.688 c 0,16,17
 84.8457 -132.114 84.8457 -132.114 119.133 -149.659 c 128,-1,18
 153.42 -167.204 153.42 -167.204 185.844 -166.094 c 0,19,20
 248.854 -166.094 248.854 -166.094 286.709 -109.751 c 128,-1,21
 324.562 -53.4072 324.562 -53.4072 324.561 52.75 c 2,22,-1
 325 86.4688 l 1,23,24
 313.463 48.9238 313.463 48.9238 277.412 24.4619 c 128,-1,25
 241.361 0 241.361 0 194.967 0 c 0,26,27
 123.799 0 123.799 0 85.9297 53.543 c 128,-1,28
 48.0605 107.086 48.0605 107.086 48.0605 230.688 c 2,29,-1
 48.0605 467 l 2,30,31
 48.0645 476.375 48.0645 476.375 57.4355 476.375 c 128,-1,32
 66.8105 476.375 66.8105 476.375 66.8105 467 c 2,33,-1
 65.9062 230.562 l 2,34,35
 65.9062 126.479 65.9062 126.479 98.9824 72.6621 c 128,-1,36
 132.057 18.8438 132.057 18.8438 195.844 18.8438 c 0,37,38
 255.334 18.8438 255.334 18.8438 289.947 65.8125 c 128,-1,39
 324.561 112.781 324.561 112.781 324.561 185.688 c 2,40,-1
 323.656 467.625 l 2,41,0
 323.656 477 323.656 477 333.031 477 c 128,-1,1
EndSplineSet
KernsSLIFO: 75 64 0 0 15 -92 0 0 13 -396 0 0
EndChar
StartChar: z
Encoding: 122 122 91
Width: 346
GlyphClass: 2
Flags: W
Fore
30.9688 465.304 m 2,0,-1
 296.875 465.304 l 2,1,2
 306.309 465.304 306.309 465.304 311.812 459.682 c 128,-1,3
 317.316 454.06 317.316 454.06 312.406 444.179 c 2,4,-1
 42 17.4287 l 1,5,-1
 300.219 17.4287 l 2,6,7
 309.594 17.4287 309.594 17.4287 309.594 8.05371 c 128,-1,8
 309.594 -1.32129 309.594 -1.32129 300.219 -1.32129 c 2,9,-1
 37.2812 -1.32129 l 2,10,11
 27.8516 -1.32129 27.8516 -1.32129 22.3457 4.31543 c 128,-1,12
 16.8379 9.95215 16.8379 9.95215 21.75 19.835 c 2,13,-1
 292.188 446.554 l 1,14,-1
 30.9688 446.554 l 2,15,16
 21.5957 446.554 21.5957 446.554 21.5938 455.929 c 128,-1,17
 21.5938 465.304 21.5938 465.304 30.9688 465.304 c 2,0,-1
EndSplineSet
KernsSLIFO: 75 -42 0 0 15 -98 0 0 14 -76 0 0 13 -400 0 0
EndChar
StartChar: braceleft
Encoding: 123 123 92
Width: 374
GlyphClass: 2
Flags: W
Fore
143.277 699.438 m 6,0,-1
 285.965 699.438 l 6,1,2
 295.34 699.438 295.34 699.438 295.34 690.062 c 132,-1,3
 295.344 680.688 295.344 680.688 285.965 680.688 c 6,4,-1
 152.652 680.688 l 5,5,6
 152.652 529.867 152.652 529.867 144.957 446.686 c 132,-1,7
 137.264 363.505 137.264 363.505 116.652 351.281 c 5,8,9
 137.205 337.811 137.205 337.811 144.93 258.191 c 132,-1,10
 152.652 178.572 152.652 178.572 152.652 20.6562 c 5,11,-1
 285.965 20.6562 l 6,12,13
 295.34 20.6562 295.34 20.6562 295.34 11.2812 c 132,-1,14
 295.34 1.90625 295.34 1.90625 285.965 1.90625 c 6,15,-1
 143.277 1.90625 l 6,16,17
 133.902 1.90625 133.902 1.90625 133.902 11.2812 c 4,18,19
 133.902 190.433 133.902 190.433 125 265.856 c 132,-1,20
 116.1 341.281 116.1 341.281 93.9023 341.281 c 6,21,-1
 42.1523 341.281 l 6,22,23
 32.7812 341.281 32.7812 341.281 32.7773 350.656 c 132,-1,24
 32.7773 360.031 32.7773 360.031 42.1523 360.031 c 6,25,-1
 93.9023 360.031 l 6,26,27
 133.902 360.031 133.902 360.031 133.902 690.062 c 4,28,29
 133.902 699.438 133.902 699.438 143.277 699.438 c 6,0,-1
EndSplineSet
EndChar
StartChar: bar
Encoding: 124 124 93
Width: 290
GlyphClass: 2
Flags: W
Fore
146.613 765.572 m 128,-1,1
 155.988 765.572 155.988 765.572 155.988 756.197 c 2,2,-1
 155.988 -150.562 l 2,3,4
 155.988 -159.938 155.988 -159.938 146.613 -159.938 c 128,-1,5
 137.238 -159.938 137.238 -159.938 137.238 -150.562 c 2,6,-1
 137.238 756.197 l 2,7,0
 137.238 765.572 137.238 765.572 146.613 765.572 c 128,-1,1
EndSplineSet
EndChar
StartChar: braceright
Encoding: 125 125 94
Width: 406
GlyphClass: 2
Flags: W
Fore
194.723 699.438 m 2,0,-1
 52.0352 699.438 l 2,1,2
 42.6602 699.438 42.6602 699.438 42.6602 690.062 c 128,-1,3
 42.6562 680.688 42.6562 680.688 52.0352 680.688 c 2,4,-1
 185.348 680.688 l 1,5,6
 185.348 529.867 185.348 529.867 193.043 446.686 c 128,-1,7
 200.736 363.505 200.736 363.505 221.348 351.281 c 1,8,9
 200.795 337.811 200.795 337.811 193.07 258.191 c 128,-1,10
 185.348 178.572 185.348 178.572 185.348 20.6562 c 1,11,-1
 52.0352 20.6562 l 2,12,13
 42.6602 20.6562 42.6602 20.6562 42.6602 11.2812 c 128,-1,14
 42.6602 1.90625 42.6602 1.90625 52.0352 1.90625 c 2,15,-1
 194.723 1.90625 l 2,16,17
 204.098 1.90625 204.098 1.90625 204.098 11.2812 c 0,18,19
 204.098 190.433 204.098 190.433 213 265.856 c 128,-1,20
 221.9 341.281 221.9 341.281 244.098 341.281 c 2,21,-1
 295.848 341.281 l 2,22,23
 305.219 341.281 305.219 341.281 305.223 350.656 c 128,-1,24
 305.223 360.031 305.223 360.031 295.848 360.031 c 2,25,-1
 244.098 360.031 l 2,26,27
 204.098 360.031 204.098 360.031 204.098 690.062 c 0,28,29
 204.098 699.438 204.098 699.438 194.723 699.438 c 2,0,-1
EndSplineSet
EndChar
StartChar: brokenbar
Encoding: 166 166 95
Width: 74
GlyphClass: 2
Flags: W
Fore
42.8271 284.162 m 0,0,1
 49.4043 284.162 49.4043 284.162 49.4043 274.787 c 2,2,-1
 49.4043 11.0273 l 2,3,4
 49.4043 1.65234 49.4043 1.65234 40.0293 1.65234 c 128,-1,5
 30.6543 1.65234 30.6543 1.65234 30.6543 11.0273 c 2,6,-1
 30.6543 274.787 l 2,7,8
 30.6543 284.162 30.6543 284.162 42.8271 284.162 c 0,0,1
40.0293 653.483 m 128,-1,10
 49.4043 653.483 49.4043 653.483 49.4043 644.108 c 2,11,-1
 49.4043 380.349 l 2,12,13
 49.4043 370.974 49.4043 370.974 40.0293 370.974 c 128,-1,14
 30.6543 370.974 30.6543 370.974 30.6543 380.349 c 2,15,-1
 30.6543 644.108 l 2,16,9
 30.6543 653.483 30.6543 653.483 40.0293 653.483 c 128,-1,10
EndSplineSet
EndChar
StartChar: questiondown
Encoding: 191 191 96
Width: 468
GlyphClass: 2
Flags: W
Fore
208.688 -1.00781 m 0,0,1
 289.548 -1.00781 289.548 -1.00781 336.837 35.8604 c 128,-1,2
 384.125 72.7285 384.125 72.7285 384.125 143.68 c 0,3,4
 384.125 221.637 384.125 221.637 349.257 256.377 c 128,-1,5
 314.389 291.117 314.389 291.117 246.312 291.117 c 0,6,7
 193.394 291.117 193.394 291.117 167.712 316.918 c 128,-1,8
 142.031 342.72 142.031 342.72 142.031 396.305 c 2,9,-1
 142.469 492.836 l 2,10,11
 142.469 502.211 142.469 502.211 133.094 502.211 c 128,-1,12
 123.717 502.211 123.717 502.211 123.719 492.836 c 2,13,-1
 124.188 396.305 l 2,14,15
 124.188 269.867 124.188 269.867 245 269.867 c 0,16,17
 311.856 269.867 311.856 269.867 339.068 239.087 c 128,-1,18
 366.281 208.308 366.281 208.308 366.281 143.68 c 0,19,20
 366.281 85.877 366.281 85.877 321.958 51.8564 c 128,-1,21
 277.636 17.8359 277.636 17.8359 209.562 17.8359 c 0,22,23
 146.228 17.8359 146.228 17.8359 101.208 45.9697 c 128,-1,24
 56.1875 74.1025 56.1875 74.1025 56.1875 126.242 c 1,25,26
 53.2803 130.244 53.2803 130.244 52.2432 131.146 c 128,-1,27
 51.2061 132.05 51.2061 132.05 46.5625 132.648 c 0,28,29
 37.1846 132.648 37.1846 132.648 37.1875 123.273 c 0,30,31
 37.1875 68.2236 37.1875 68.2236 87.4209 33.6084 c 128,-1,32
 137.653 -1.00781 137.653 -1.00781 208.688 -1.00781 c 0,0,1
142.461 697.528 m 128,-1,34
 142.461 706.904 142.461 706.904 133.086 706.904 c 128,-1,35
 123.711 706.904 123.711 706.904 123.711 697.528 c 128,-1,36
 123.711 688.153 123.711 688.153 133.086 688.153 c 128,-1,33
 142.461 688.153 142.461 688.153 142.461 697.528 c 128,-1,34
EndSplineSet
EndChar
StartChar: acute
Encoding: 180 180 97
Width: 362
Flags: W
TeX: 0 0 0 0
Fore
264.216 728.773 m 132,-1,1
 270.845 722.145 270.845 722.145 264.216 715.515 c 6,2,-1
 95.2578 527.558 l 6,3,4
 88.6299 520.928 88.6299 520.928 82 527.558 c 132,-1,5
 75.3711 534.187 75.3711 534.187 82 540.815 c 6,6,-1
 250.958 728.773 l 6,7,0
 257.587 735.402 257.587 735.402 264.216 728.773 c 132,-1,1
EndSplineSet
EndChar
StartChar: asciitilde
Encoding: 126 126 98
Width: 382
Flags: W
TeX: 0 0 0 0
Fore
149.018 700.42 m 4,0,1
 167.033 700.42 167.033 700.42 179.482 694.651 c 132,-1,2
 191.932 688.883 191.932 688.883 198.301 681.254 c 132,-1,3
 204.669 673.624 204.669 673.624 207.977 659.05 c 132,-1,4
 211.283 644.475 211.283 644.475 211.838 634.143 c 132,-1,5
 212.393 623.811 212.393 623.811 212.393 605.357 c 4,6,7
 212.393 575.178 212.393 575.178 219.74 560.986 c 132,-1,8
 227.088 546.795 227.088 546.795 251.393 546.795 c 4,9,10
 281.781 546.795 281.781 546.795 292.118 577.193 c 132,-1,11
 302.455 607.593 302.455 607.593 302.455 665.857 c 4,12,13
 302.457 675.232 302.457 675.232 311.83 675.232 c 132,-1,14
 321.203 675.232 321.203 675.232 321.205 665.857 c 4,15,16
 321.206 592.037 321.206 592.037 307.455 559.994 c 132,-1,17
 293.703 527.951 293.703 527.951 252.268 527.951 c 4,18,19
 211.541 527.951 211.541 527.951 200.217 550.087 c 132,-1,20
 188.893 572.223 188.893 572.223 188.893 621.326 c 4,21,22
 188.893 650.378 188.893 650.378 180 665.977 c 132,-1,23
 171.106 681.576 171.106 681.576 148.143 681.576 c 4,24,25
 130.09 681.576 130.09 681.576 118.607 672.857 c 132,-1,26
 107.124 664.14 107.124 664.14 101.888 645.807 c 132,-1,27
 96.6514 627.475 96.6514 627.475 95.0059 608.81 c 132,-1,28
 93.3613 590.145 93.3613 590.145 93.3613 560.857 c 4,29,30
 93.3613 551.482 93.3613 551.482 83.9873 551.482 c 132,-1,31
 74.6133 551.482 74.6133 551.482 74.6113 560.857 c 4,32,33
 74.6113 633.724 74.6113 633.724 90.373 667.072 c 132,-1,34
 106.136 700.42 106.136 700.42 149.018 700.42 c 4,0,1
EndSplineSet
EndChar
StartChar: cedilla
Encoding: 184 184 99
Width: 134
Flags: W
TeX: 0 0 0 0
Fore
203.155 -58.8232 m 132,-1,1
 203.155 -105.746 203.155 -105.746 179.59 -127.247 c 132,-1,2
 156.024 -148.748 156.024 -148.748 91.2285 -148.748 c 4,3,4
 81.8535 -148.746 81.8535 -148.746 81.8535 -139.373 c 132,-1,5
 81.8535 -129.998 81.8535 -129.998 91.2285 -129.998 c 4,6,7
 184.312 -129.998 184.312 -129.998 184.312 -57.9482 c 4,8,9
 184.312 -20.8389 184.312 -20.8389 163 -6 c 132,-1,10
 141.689 8.83887 141.689 8.83887 90.6113 8.83887 c 4,11,12
 81.2363 8.83887 81.2363 8.83887 81.2363 18.2139 c 132,-1,13
 81.2363 27.5889 81.2363 27.5889 90.6113 27.5889 c 4,14,15
 156.51 27.5889 156.51 27.5889 179.832 7.93262 c 132,-1,0
 203.155 -11.7227 203.155 -11.7227 203.155 -58.8232 c 132,-1,1
EndSplineSet
EndChar
StartChar: dieresis
Encoding: 168 168 100
Width: 300
Flags: W
TeX: 0 0 0 0
Fore
72.75 656 m 132,-1,1
 72.75 646.625 72.75 646.625 63.375 646.625 c 132,-1,2
 54 646.625 54 646.625 54 656 c 132,-1,3
 54 665.375 54 665.375 63.375 665.375 c 132,-1,0
 72.75 665.375 72.75 665.375 72.75 656 c 132,-1,1
248.64 656 m 128,-1,5
 248.64 646.625 248.64 646.625 239.265 646.625 c 128,-1,6
 229.89 646.625 229.89 646.625 229.89 656 c 128,-1,7
 229.89 665.375 229.89 665.375 239.265 665.375 c 128,-1,4
 248.64 665.375 248.64 665.375 248.64 656 c 128,-1,5
EndSplineSet
EndChar
StartChar: circumflex
Encoding: 710 710 101
Width: 380
Flags: W
TeX: 0 0 0 0
Fore
185.717 690.031 m 4,0,1
 185.972 690.043 185.972 690.043 186.872 689.969 c 5,2,3
 192.074 690.41 192.074 690.41 195.186 686.281 c 6,4,-1
 300.186 529.812 l 6,5,6
 305.815 522.342 305.815 522.342 298.311 516.688 c 132,-1,7
 290.826 511.046 290.826 511.046 285.186 518.531 c 6,8,-1
 186.872 665 l 5,9,-1
 88.5918 518.531 l 6,10,11
 82.9512 511.046 82.9512 511.046 75.4668 516.688 c 132,-1,12
 67.9824 522.326 67.9824 522.326 73.6221 529.812 c 6,13,-1
 178.622 686.281 l 6,14,15
 181.302 689.836 181.302 689.836 185.717 690.031 c 4,0,1
EndSplineSet
EndChar
StartChar: caron
Encoding: 711 711 102
Width: 380
Flags: W
TeX: 0 0 0 0
Fore
185.717 504.969 m 0,0,1
 185.972 504.957 185.972 504.957 186.872 505.031 c 1,2,3
 192.074 504.59 192.074 504.59 195.186 508.719 c 2,4,-1
 300.186 665.188 l 2,5,6
 305.815 672.658 305.815 672.658 298.311 678.312 c 128,-1,7
 290.826 683.954 290.826 683.954 285.186 676.469 c 2,8,-1
 186.872 530 l 1,9,-1
 88.5918 676.469 l 2,10,11
 82.9512 683.954 82.9512 683.954 75.4668 678.312 c 128,-1,12
 67.9824 672.674 67.9824 672.674 73.6221 665.188 c 2,13,-1
 178.622 508.719 l 2,14,15
 181.302 505.164 181.302 505.164 185.717 504.969 c 0,0,1
EndSplineSet
EndChar
StartChar: ring
Encoding: 730 730 103
Width: 321
Flags: W
TeX: 0 0 0 0
Fore
156.153 736.312 m 4,0,1
 245.966 736.312 245.966 736.312 245.966 633.469 c 4,2,3
 245.966 578.924 245.966 578.924 224.477 554.774 c 132,-1,4
 202.986 530.625 202.986 530.625 156.153 530.625 c 4,5,6
 112.632 530.625 112.632 530.625 91.2363 555.443 c 132,-1,7
 69.8398 580.263 69.8398 580.263 69.8398 633.469 c 4,8,9
 69.8398 736.312 69.8398 736.312 156.153 736.312 c 4,0,1
155.278 717.469 m 4,10,11
 119.917 717.469 119.917 717.469 104.885 698.212 c 132,-1,12
 89.8516 678.955 89.8516 678.955 88.6221 633.469 c 4,13,14
 89.8496 587.977 89.8496 587.977 104.881 568.723 c 132,-1,15
 119.912 549.469 119.912 549.469 155.278 549.469 c 4,16,17
 223.713 549.469 223.713 549.469 227.122 633.469 c 4,18,19
 223.707 717.469 223.707 717.469 155.278 717.469 c 4,10,11
EndSplineSet
EndChar
StartChar: breve
Encoding: 728 728 104
Width: 268
Flags: W
TeX: 0 0 0 0
Fore
132.416 584.639 m 128,-1,1
 179.34 584.639 179.34 584.639 200.841 608.204 c 128,-1,2
 222.342 631.77 222.342 631.77 222.342 696.565 c 0,3,4
 222.338 705.94 222.338 705.94 212.967 705.94 c 128,-1,5
 203.592 705.94 203.592 705.94 203.592 696.565 c 0,6,7
 203.592 603.482 203.592 603.482 131.541 603.482 c 0,8,9
 94.4316 603.482 94.4316 603.482 79.5928 624.794 c 128,-1,10
 64.7539 646.105 64.7539 646.105 64.7539 697.183 c 0,11,12
 64.7539 706.558 64.7539 706.558 55.3789 706.558 c 128,-1,13
 46.0039 706.558 46.0039 706.558 46.0039 697.183 c 0,14,15
 46.0039 631.285 46.0039 631.285 65.6602 607.962 c 128,-1,0
 85.3164 584.639 85.3164 584.639 132.416 584.639 c 128,-1,1
EndSplineSet
EndChar
StartChar: tilde
Encoding: 732 732 105
Width: 382
Flags: W
TeX: 0 0 0 0
Fore
149.018 700.42 m 0,0,1
 167.033 700.42 167.033 700.42 179.482 694.651 c 128,-1,2
 191.932 688.883 191.932 688.883 198.301 681.254 c 128,-1,3
 204.669 673.624 204.669 673.624 207.977 659.05 c 128,-1,4
 211.283 644.475 211.283 644.475 211.838 634.143 c 128,-1,5
 212.393 623.811 212.393 623.811 212.393 605.357 c 0,6,7
 212.393 575.178 212.393 575.178 219.74 560.986 c 128,-1,8
 227.088 546.795 227.088 546.795 251.393 546.795 c 0,9,10
 281.781 546.795 281.781 546.795 292.118 577.193 c 128,-1,11
 302.455 607.593 302.455 607.593 302.455 665.857 c 0,12,13
 302.457 675.232 302.457 675.232 311.83 675.232 c 128,-1,14
 321.203 675.232 321.203 675.232 321.205 665.857 c 0,15,16
 321.206 592.037 321.206 592.037 307.455 559.994 c 128,-1,17
 293.703 527.951 293.703 527.951 252.268 527.951 c 0,18,19
 211.541 527.951 211.541 527.951 200.217 550.087 c 128,-1,20
 188.893 572.223 188.893 572.223 188.893 621.326 c 0,21,22
 188.893 650.378 188.893 650.378 180 665.977 c 128,-1,23
 171.106 681.576 171.106 681.576 148.143 681.576 c 0,24,25
 130.09 681.576 130.09 681.576 118.607 672.857 c 128,-1,26
 107.124 664.14 107.124 664.14 101.888 645.807 c 128,-1,27
 96.6514 627.475 96.6514 627.475 95.0059 608.81 c 128,-1,28
 93.3613 590.145 93.3613 590.145 93.3613 560.857 c 0,29,30
 93.3613 551.482 93.3613 551.482 83.9873 551.482 c 128,-1,31
 74.6133 551.482 74.6133 551.482 74.6113 560.857 c 0,32,33
 74.6113 633.724 74.6113 633.724 90.373 667.072 c 128,-1,34
 106.136 700.42 106.136 700.42 149.018 700.42 c 0,0,1
EndSplineSet
EndChar
StartChar: ogonek
Encoding: 731 731 106
Width: 209
Flags: W
TeX: 0 0 0 0
Fore
61 -58.8232 m 128,-1,1
 61 -105.746 61 -105.746 84.5654 -127.247 c 128,-1,2
 108.131 -148.748 108.131 -148.748 172.927 -148.748 c 0,3,4
 182.302 -148.746 182.302 -148.746 182.302 -139.373 c 128,-1,5
 182.302 -129.998 182.302 -129.998 172.927 -129.998 c 0,6,7
 79.8438 -129.998 79.8438 -129.998 79.8438 -57.9482 c 0,8,9
 79.8438 -20.8389 79.8438 -20.8389 101.155 -6 c 128,-1,10
 122.466 8.83887 122.466 8.83887 173.544 8.83887 c 0,11,12
 182.919 8.83887 182.919 8.83887 182.919 18.2139 c 128,-1,13
 182.919 27.5889 182.919 27.5889 173.544 27.5889 c 0,14,15
 107.646 27.5889 107.646 27.5889 84.3232 7.93262 c 128,-1,0
 61 -11.7227 61 -11.7227 61 -58.8232 c 128,-1,1
EndSplineSet
EndChar
StartChar: hungarumlaut
Encoding: 733 733 107
Width: 553
Flags: W
TeX: 0 0 0 0
Fore
264.216 728.773 m 128,-1,1
 270.845 722.145 270.845 722.145 264.216 715.515 c 2,2,-1
 95.2578 527.558 l 2,3,4
 88.6299 520.928 88.6299 520.928 82 527.558 c 128,-1,5
 75.3711 534.187 75.3711 534.187 82 540.815 c 2,6,-1
 250.958 728.773 l 2,7,0
 257.587 735.402 257.587 735.402 264.216 728.773 c 128,-1,1
502.5 728.773 m 128,-1,9
 509.129 722.145 509.129 722.145 502.5 715.515 c 2,10,-1
 333.542 527.558 l 2,11,12
 326.914 520.928 326.914 520.928 320.284 527.558 c 128,-1,13
 313.655 534.187 313.655 534.187 320.284 540.815 c 2,14,-1
 489.242 728.773 l 2,15,8
 495.871 735.402 495.871 735.402 502.5 728.773 c 128,-1,9
EndSplineSet
EndChar
StartChar: dotaccent
Encoding: 729 729 108
Width: 125
Flags: W
TeX: 0 0 0 0
Fore
72.75 656 m 128,-1,1
 72.75 646.625 72.75 646.625 63.375 646.625 c 128,-1,2
 54 646.625 54 646.625 54 656 c 128,-1,3
 54 665.375 54 665.375 63.375 665.375 c 128,-1,0
 72.75 665.375 72.75 665.375 72.75 656 c 128,-1,1
EndSplineSet
EndChar
StartChar: dotlessi
Encoding: 305 305 136
Width: 116
Flags: W
TeX: 0 0 0 0
Fore
61.7217 475.819 m 128,-1,1
 71.0967 475.819 71.0967 475.819 71.0967 466.444 c 2,2,-1
 71.0967 9.15625 l 2,3,4
 71.0967 -0.21875 71.0967 -0.21875 61.7217 -0.21875 c 128,-1,5
 52.3467 -0.21875 52.3467 -0.21875 52.3467 9.15625 c 2,6,-1
 52.3467 466.444 l 2,7,0
 52.3467 475.819 52.3467 475.819 61.7217 475.819 c 128,-1,1
EndSplineSet
EndChar
